<svg width="28" height="28" viewBox="0 0 28 28" fill="none" xmlns="http://www.w3.org/2000/svg">
<g id="Frame" clip-path="url(#clip0_1084_2207)">
<g id="Group">
<path id="Vector" d="M7.49226 16.8566C7.75372 16.7058 7.84324 16.371 7.69242 16.1095C7.54137 15.8483 7.20685 15.7586 6.94538 15.9094C6.68392 16.0604 6.59418 16.3952 6.74523 16.6564C6.896 16.9179 7.2308 17.0076 7.49226 16.8566Z" fill="#3391FF"/>
<path id="Vector_2" d="M5.24914 20.631L8.0032 25.4013C8.59749 26.4319 9.93433 26.8134 10.9915 26.2022C12.0377 25.5977 12.3972 24.2611 11.792 23.2141L10.1514 20.372L11.5722 19.5517C11.8337 19.4005 11.9234 19.0662 11.7723 18.8047L11.0612 17.5729C11.146 17.5565 11.7036 17.4472 21.536 15.5183C22.7515 15.4523 23.4798 14.1229 22.8658 13.0601L21.0483 9.9122L22.2098 8.15301C22.2657 8.06825 22.297 7.96957 22.3001 7.86804C22.3031 7.7665 22.2779 7.66612 22.2271 7.57814L21.1333 5.68376C21.0824 5.59589 21.0081 5.52389 20.9187 5.4758C20.8292 5.42771 20.7282 5.40542 20.6268 5.41142L18.5228 5.53764L16.5052 2.04272C16.2129 1.53648 15.6894 1.2299 15.1049 1.22263C15.0978 1.22241 15.091 1.22241 15.0839 1.22241C14.5191 1.22241 14.0064 1.50356 13.7027 1.97885L6.55868 11.0797L1.91429 13.761C0.0876226 14.8153 -0.545221 17.1588 0.513146 18.9904C1.48002 20.6652 3.51839 21.324 5.24914 20.631V20.631ZM10.845 23.7612C11.1471 24.2837 10.9683 24.9523 10.4442 25.2551C9.91852 25.559 9.24904 25.3723 8.95039 24.8547L6.21601 20.118L8.11039 19.0243C11.275 24.5063 10.7942 23.6734 10.845 23.7612ZM9.6045 19.4246L9.05763 18.4774L10.0048 17.9305L10.5517 18.8777L9.6045 19.4246ZM20.3551 6.52327L21.1109 7.83238L20.4369 8.85307L19.1342 6.59655L20.3551 6.52327ZM14.6174 2.5785C14.7642 2.33842 14.997 2.31365 15.0914 2.31616C15.1848 2.31726 15.4174 2.34629 15.5577 2.58944L21.9186 13.607C22.1258 13.9657 21.8739 14.4166 21.4585 14.4269C21.3839 14.4286 21.3495 14.4421 21.1585 14.4778L14.43 2.8235C14.5712 2.64194 14.5894 2.62444 14.6174 2.5785ZM13.7022 3.75067L20.024 14.7004L10.4832 16.5717L7.58216 11.547L13.7022 3.75067ZM1.46033 18.4435C1.22043 18.0287 1.09388 17.5581 1.09338 17.079C1.09338 16.1036 1.61756 15.1953 2.46111 14.7083L6.72357 12.2474L9.45794 16.9833L5.19554 19.4445C3.88966 20.1981 2.2142 19.7491 1.46039 18.4435H1.46033Z" fill="#3391FF"/>
<path id="Vector_3" d="M5.79772 17.2032C5.64672 16.9418 5.31215 16.852 5.05068 17.0031L4.1035 17.55C3.84242 17.7008 3.50729 17.6108 3.35647 17.3498C3.20542 17.0883 2.87084 16.9986 2.60944 17.1496C2.34803 17.3007 2.25823 17.6352 2.40928 17.8967C2.85936 18.6764 3.86342 18.9513 4.65037 18.4971L5.59756 17.9503C5.85902 17.7993 5.94876 17.4649 5.79772 17.2032ZM27.1889 2.39234L24.1415 4.08809C23.8777 4.23503 23.7827 4.56808 23.9296 4.83189C24.0762 5.09549 24.409 5.19102 24.6735 5.04381L27.7206 3.34811C27.9847 3.20111 28.0795 2.86806 27.9325 2.60425C27.7858 2.34022 27.4527 2.24539 27.1889 2.39234ZM26.8693 8.05632L24.7563 7.49025C24.4645 7.41205 24.1646 7.58508 24.0864 7.87689C24.0082 8.1687 24.1815 8.46845 24.4733 8.54659L26.5865 9.11272C26.88 9.19152 27.1784 9.0157 27.2562 8.72608C27.3344 8.43427 27.1611 8.13436 26.8693 8.05632ZM21.5595 0.405431L20.9927 2.51856C20.9145 2.81042 21.0876 3.11011 21.3794 3.18848C21.671 3.26646 21.9709 3.09387 22.0493 2.80184L22.6159 0.688712C22.6941 0.396899 22.521 0.096993 22.2292 0.0187899C21.9376 -0.0594132 21.6377 0.113618 21.5595 0.405431H21.5595Z" fill="#3391FF"/>
</g>
</g>
<defs>
<clipPath id="clip0_1084_2207">
<rect width="28" height="28" fill="white"/>
</clipPath>
</defs>
</svg>
