<svg width="258" height="258" viewBox="0 0 258 258" fill="none" xmlns="http://www.w3.org/2000/svg">
<path d="M54.5127 85.0829C55.2767 88.9136 54.887 92.8849 53.393 96.494C51.899 100.103 49.3678 103.188 46.1198 105.358C42.8718 107.528 39.0531 108.685 35.147 108.684C31.2409 108.682 27.4229 107.522 24.1765 105.35C20.9301 103.178 18.4011 100.091 16.9097 96.481C15.4182 92.8708 15.0314 88.8993 15.7981 85.0691C16.5648 81.239 18.4506 77.7224 21.2168 74.9645C23.983 72.2067 27.5053 70.3315 31.3377 69.5763C36.4672 68.56 41.7903 69.6227 46.1363 72.5306C50.4823 75.4386 53.4953 79.9537 54.5127 85.0829Z" fill="#F5F5F5"/>
<path d="M49.9028 86.0047C50.4793 88.9239 50.1772 91.9485 49.0345 94.696C47.8919 97.4435 45.9601 99.7904 43.4835 101.44C41.0069 103.089 38.0967 103.967 35.1211 103.963C32.1455 103.958 29.2381 103.071 26.7667 101.414C24.2953 99.7564 22.3708 97.4034 21.2368 94.6524C20.1028 91.9013 19.8102 88.8757 20.3959 85.9583C20.9816 83.0409 22.4193 80.3628 24.5273 78.2626C26.6353 76.1624 29.3187 74.7346 32.2383 74.1597C34.176 73.776 36.1704 73.7782 38.1073 74.166C40.0442 74.5538 41.8857 75.3197 43.5263 76.4199C45.167 77.52 46.5746 78.9328 47.6688 80.5775C48.7629 82.2221 49.5221 84.0664 49.9028 86.0047Z" fill="#EBEBEB"/>
<path d="M49.803 85.5311C49.7155 85.5311 49.5249 84.9131 49.0666 83.8316C48.4286 82.3118 47.5601 80.8996 46.4916 79.6447C45.7524 78.7888 44.9198 78.0184 44.0093 77.3478C42.9666 76.5829 41.8293 75.9563 40.6257 75.4835C39.975 75.223 39.3052 75.013 38.6224 74.8552C37.9162 74.6865 37.1983 74.5711 36.4748 74.5101C35.7241 74.4508 34.9698 74.4508 34.2191 74.5101C33.448 74.5682 32.6821 74.6818 31.9274 74.85C31.1713 75.0265 30.4293 75.2588 29.7077 75.5453C29.0112 75.8283 28.3364 76.1623 27.6889 76.5444C27.0601 76.9056 26.4593 77.3136 25.8916 77.7649C25.3399 78.2009 24.8233 78.6796 24.3466 79.1966C23.4789 80.1552 22.7381 81.2214 22.1424 82.369C21.6197 83.3716 21.2087 84.4285 20.9167 85.5208C20.4911 87.1166 20.3173 88.7691 20.4017 90.4185C20.4583 91.5927 20.5665 92.2467 20.4789 92.2673C20.3914 92.2879 20.1545 91.6648 19.9639 90.4648C19.6964 88.7531 19.7506 87.0066 20.1236 85.3148C20.3763 84.1425 20.7688 83.0049 21.2926 81.9261C21.8972 80.6825 22.6682 79.5269 23.5844 78.4911C24.0785 77.9267 24.6157 77.4015 25.1912 76.9203C25.7878 76.4124 26.4251 75.9542 27.0967 75.5504C27.7909 75.1277 28.5176 74.7609 29.27 74.4535C30.8204 73.8181 32.4644 73.4406 34.1367 73.3359C34.9467 73.2859 35.7594 73.2979 36.5675 73.372C37.3475 73.4463 38.1205 73.5806 38.8799 73.7737C39.6059 73.9561 40.3169 74.1937 41.0068 74.4844C43.4085 75.4741 45.5115 77.0714 47.1096 79.1194C48.1785 80.4749 48.9869 82.0167 49.494 83.6668C49.8288 84.841 49.87 85.5157 49.803 85.5311Z" fill="#E0E0E0"/>
<path d="M38.5479 97.376L39.0886 99.951L36.802 100.435L36.287 97.9425C33.9953 98.2876 31.652 98.0404 30.1997 97.3194L30.8692 94.2603C32.377 94.9017 34.0264 95.1379 35.6536 94.9452L34.8399 91.1239C32.1722 91.0467 29.1749 90.7995 28.459 87.5189C27.944 85.0933 29.2624 82.6367 32.7953 81.4625L32.2803 78.9184L34.5669 78.4343L35.0819 80.9269C36.7393 80.6702 38.4339 80.8114 40.0259 81.3389L39.48 84.398C38.2706 84.0015 36.9945 83.8492 35.7257 83.95L36.5497 87.8382C39.2174 87.8949 42.2147 88.1524 42.8739 91.3763C43.3528 93.7298 42.0499 96.1761 38.5479 97.376ZM34.1137 87.7455L33.4236 84.4959C32.27 85.0109 31.9301 85.7937 32.0898 86.5559C32.2494 87.3181 33.0374 87.6374 34.1137 87.7455ZM39.2174 92.4269C39.0474 91.6235 38.2955 91.3299 37.2346 91.196L37.9041 94.353C38.9959 93.8586 39.377 93.1582 39.2174 92.4269Z" fill="#E0E0E0"/>
<path d="M107.428 155.077C107.875 157.317 107.647 159.64 106.774 161.751C105.9 163.863 104.419 165.667 102.52 166.937C100.62 168.206 98.3861 168.883 96.1013 168.882C93.8165 168.882 91.5832 168.203 89.6842 166.933C87.7852 165.662 86.3059 163.857 85.4334 161.745C84.561 159.633 84.3347 157.31 84.7832 155.07C85.2317 152.829 86.3349 150.772 87.953 149.159C89.5711 147.546 91.6314 146.449 93.8732 146.008C95.3587 145.713 96.8877 145.714 98.3729 146.01C99.8582 146.306 101.27 146.892 102.529 147.734C103.788 148.577 104.868 149.658 105.709 150.918C106.549 152.178 107.134 153.591 107.428 155.077Z" fill="#F5F5F5"/>
<path d="M104.738 155.612C105.078 157.32 104.904 159.091 104.237 160.7C103.571 162.309 102.442 163.684 100.993 164.651C99.545 165.618 97.8423 166.134 96.1006 166.133C94.359 166.132 92.6569 165.614 91.2096 164.645C89.7624 163.676 88.6352 162.3 87.9706 160.69C87.3061 159.08 87.1341 157.309 87.4764 155.602C87.8187 153.894 88.66 152.326 89.8937 151.097C91.1274 149.868 92.6981 149.032 94.4069 148.696C95.5395 148.471 96.7052 148.472 97.8375 148.697C98.9699 148.923 100.047 149.37 101.006 150.013C101.965 150.655 102.789 151.48 103.429 152.441C104.07 153.402 104.514 154.48 104.738 155.612Z" fill="#EBEBEB"/>
<path d="M104.678 155.339C104.499 155.024 104.354 154.691 104.245 154.345C103.869 153.457 103.358 152.632 102.731 151.899C102.296 151.4 101.81 150.949 101.279 150.555C100.667 150.107 100.001 149.74 99.2958 149.463C98.9173 149.313 98.5283 149.191 98.1319 149.097C97.7192 148.996 97.2989 148.929 96.8753 148.897C96.4366 148.86 95.9956 148.86 95.5569 148.897C95.1047 148.929 94.6554 148.994 94.2127 149.092C93.7712 149.198 93.3376 149.333 92.9149 149.499C92.5075 149.665 92.1133 149.861 91.7356 150.086C91.0194 150.503 90.3686 151.024 89.8044 151.631C89.289 152.185 88.8492 152.805 88.4962 153.475C88.1898 154.062 87.9481 154.68 87.7752 155.319C87.5319 156.253 87.4329 157.218 87.4817 158.182C87.5346 158.54 87.5502 158.902 87.5281 159.264C87.3539 158.946 87.2502 158.595 87.2242 158.234C87.0671 157.234 87.0968 156.214 87.3117 155.226C87.4636 154.541 87.6934 153.876 87.9967 153.243C88.3525 152.516 88.8046 151.841 89.3408 151.235C89.63 150.906 89.9433 150.6 90.2781 150.318C90.6295 150.022 91.0031 149.753 91.3957 149.515C91.8008 149.269 92.2243 149.056 92.6626 148.876C93.1161 148.694 93.5826 148.546 94.0582 148.433C94.5362 148.325 95.0217 148.255 95.5106 148.222C95.9836 148.183 96.4589 148.183 96.9319 148.222C97.8259 148.31 98.7021 148.529 99.5327 148.871C100.27 149.187 100.963 149.599 101.593 150.097C102.142 150.531 102.638 151.029 103.071 151.58C103.698 152.373 104.171 153.276 104.466 154.242C104.619 154.587 104.691 154.962 104.678 155.339Z" fill="#E0E0E0"/>
<path d="M98.0933 162.266L98.4126 163.765L97.0736 164.048L96.7646 162.59C95.5709 162.802 94.3417 162.675 93.2162 162.225L93.6025 160.433C94.486 160.806 95.4512 160.944 96.4041 160.834L95.9303 158.599C94.3853 158.553 92.6034 158.409 92.1965 156.493C91.8927 155.077 92.6652 153.64 94.7303 152.95L94.4162 151.461L95.7552 151.178L96.0642 152.635C97.0329 152.487 98.0229 152.57 98.9533 152.877L98.634 154.665C97.9268 154.435 97.1816 154.346 96.4401 154.402L96.9191 156.678C98.4641 156.714 100.22 156.864 100.622 158.738C100.905 160.165 100.143 161.566 98.0933 162.266ZM95.5183 156.632L95.1114 154.731C94.4368 155.046 94.2411 155.494 94.3338 155.937C94.4265 156.379 94.8745 156.56 95.5028 156.632H95.5183ZM98.5053 159.372C98.4023 158.903 97.9645 158.733 97.3414 158.651L97.7379 160.499C98.3662 160.211 98.5774 159.799 98.4898 159.372H98.5053Z" fill="#E0E0E0"/>
<path d="M248.23 233.481C248.23 233.553 194.736 233.614 128.75 233.614C62.7626 233.614 9.26953 233.553 9.26953 233.481C9.26953 233.408 62.7523 233.347 128.75 233.347C194.747 233.347 248.23 233.408 248.23 233.481Z" fill="#263238"/>
<path d="M210.067 21.6455H47.4553C45.4046 21.6455 43.7422 23.3079 43.7422 25.3587V145.488C43.7422 147.538 45.4046 149.201 47.4553 149.201H210.067C212.117 149.201 213.78 147.538 213.78 145.488V25.3587C213.78 23.3079 212.117 21.6455 210.067 21.6455Z" fill="white"/>
<path d="M210.068 149.201C210.633 149.195 211.19 149.061 211.696 148.808C212.202 148.556 212.644 148.192 212.988 147.743C213.515 147.055 213.786 146.205 213.755 145.338C213.755 141.414 213.755 135.63 213.73 128.184C213.73 113.285 213.704 91.7267 213.683 65.0909C213.683 58.4302 213.683 51.4606 213.683 44.1819C213.683 40.546 213.683 36.8397 213.683 33.0631V25.8943C213.711 25.4209 213.672 24.9461 213.57 24.4832C213.454 24.0239 213.249 23.5919 212.966 23.2119C212.683 22.832 212.329 22.5114 211.922 22.2687C211.512 22.0234 211.056 21.864 210.583 21.8C210.098 21.7603 209.612 21.7465 209.125 21.7588H162.049H47.4721C46.8536 21.7548 46.2445 21.91 45.7033 22.2094C45.1622 22.5089 44.7072 22.9425 44.3821 23.4686C44.0623 23.9906 43.8848 24.5872 43.8671 25.199C43.8671 25.8222 43.8671 26.4608 43.8671 27.0891V49.5946C43.8671 59.4929 43.8671 69.2384 43.8671 78.8311C43.8671 97.9994 43.8671 116.488 43.8671 134.101V140.662C43.8671 141.749 43.8671 142.835 43.8671 143.912C43.8671 144.452 43.8671 144.993 43.8671 145.529C43.877 146.05 44 146.563 44.2275 147.033C44.4549 147.499 44.7801 147.91 45.1809 148.239C45.5818 148.568 46.0488 148.806 46.5502 148.938C47.0575 149.047 47.5772 149.087 48.0952 149.057H55.9902H80.2621H123.831L186.924 149.098L204.078 149.123H208.538C209.543 149.123 210.058 149.123 210.058 149.123H208.538H204.078H186.924L123.831 149.17H80.2621H48.1055C47.5632 149.198 47.0194 149.155 46.4884 149.041C45.6808 148.829 44.9645 148.359 44.4478 147.703C43.9311 147.047 43.6423 146.24 43.625 145.405V133.972C43.625 116.359 43.625 97.8707 43.625 78.7024V27.1148C43.625 26.4814 43.625 25.8582 43.625 25.2145C43.6491 24.5568 43.8425 23.9164 44.1864 23.3553C44.5327 22.7922 45.0174 22.3272 45.5944 22.0045C46.1713 21.6817 46.8213 21.5121 47.4823 21.5116H162.06H187.81H209.089C209.586 21.4947 210.083 21.5085 210.578 21.5528C211.081 21.6272 211.565 21.8023 211.999 22.0678C212.431 22.3248 212.808 22.6646 213.109 23.0676C213.409 23.4705 213.627 23.9288 213.75 24.4162C213.855 24.8979 213.895 25.3916 213.869 25.884V33.0631C213.869 36.8397 213.869 40.546 213.869 44.1819C213.869 51.4537 213.869 58.4234 213.869 65.0909C213.869 91.7267 213.838 113.285 213.827 128.184C213.827 135.63 213.827 141.414 213.827 145.338C213.853 146.091 213.652 146.834 213.25 147.47C212.847 148.107 212.263 148.608 211.572 148.907C211.22 149.054 210.849 149.15 210.47 149.19L210.068 149.201Z" fill="#263238"/>
<path d="M201.535 41.0713H135.435C133.1 41.0713 131.207 42.9643 131.207 45.2994V70.5499C131.207 72.885 133.1 74.778 135.435 74.778H201.535C203.871 74.778 205.764 72.885 205.764 70.5499V45.2994C205.764 42.9643 203.871 41.0713 201.535 41.0713Z" fill="#3391FF"/>
<g opacity="0.2">
<path d="M171.436 56.5108V57.8498H170.241V56.5468C169.184 56.5192 168.155 56.1982 167.27 55.6198L167.929 54.1624C168.613 54.6411 169.41 54.9339 170.241 55.0121V53.0139C168.918 52.6946 167.439 52.2517 167.439 50.5471C167.439 49.2802 168.356 48.1935 170.241 47.9721V46.6279H171.436V47.9309C172.29 47.9783 173.122 48.2271 173.862 48.657L173.264 50.1248C172.701 49.8004 172.08 49.5904 171.436 49.5068V51.5359C172.759 51.8449 174.217 52.2878 174.217 53.9667C174.217 55.213 173.31 56.2842 171.436 56.5108ZM170.241 51.2372V49.5428C169.608 49.6819 169.36 50.0578 169.36 50.4235C169.36 50.7891 169.716 51.0672 170.241 51.2372ZM172.301 54.1109C172.301 53.6937 171.956 53.4671 171.441 53.2869V54.9349C172.033 54.8061 172.296 54.492 172.296 54.1109H172.301Z" fill="white"/>
</g>
<g opacity="0.2">
<path d="M177.157 64.9414V65.9714H176.231V64.9414C175.411 64.9156 174.615 64.6604 173.934 64.2049L174.449 63.0771C174.979 63.4466 175.597 63.672 176.241 63.7311V62.1861C175.211 61.9338 174.073 61.5939 174.073 60.2703C174.073 59.2918 174.783 58.4524 176.241 58.2824V57.2524H177.157V58.2824C177.818 58.3163 178.461 58.5088 179.032 58.8438L178.569 59.9819C178.136 59.7277 177.656 59.5647 177.157 59.503V61.0737C178.187 61.3106 179.31 61.6557 179.31 62.9586C179.31 63.932 178.61 64.7663 177.157 64.9414ZM176.231 60.8574V59.5442C175.741 59.6523 175.551 59.9201 175.551 60.2291C175.551 60.5381 175.824 60.7287 176.231 60.8574ZM177.822 63.0822C177.822 62.7578 177.554 62.5672 177.157 62.4436V63.7208C177.621 63.6178 177.822 63.3809 177.822 63.0822Z" fill="white"/>
</g>
<path d="M184.236 55.2751C184.244 55.3452 184.244 55.416 184.236 55.4862C184.236 55.6459 184.236 55.8467 184.236 56.0939C184.236 56.6501 184.236 57.4123 184.236 58.3651V66.3424V66.2652C184.67 66.6675 185.203 66.9466 185.781 67.0737C186.41 67.2225 187.055 67.2951 187.702 67.29C189.074 67.3267 190.422 66.9244 191.549 66.1416L191.503 66.2446C191.503 62.1606 191.503 58.3805 191.503 55.2854V55.3266C191.356 55.0894 191.153 54.8928 190.91 54.7549C190.667 54.617 190.41 54.5048 190.143 54.4202C189.64 54.275 189.121 54.1869 188.598 54.1575C187.751 54.092 186.899 54.1388 186.064 54.2966C185.532 54.3984 185.025 54.603 184.571 54.8991C184.457 54.9845 184.348 55.0774 184.246 55.1772C184.185 55.2493 184.154 55.2905 184.148 55.2854C184.237 55.1096 184.368 54.959 184.53 54.8476C184.98 54.52 185.494 54.2902 186.039 54.173C186.884 53.9929 187.75 53.927 188.614 53.9773C189.15 53.9997 189.683 54.0844 190.2 54.2296C190.811 54.3715 191.347 54.7394 191.698 55.2596C191.698 58.3496 191.698 62.1349 191.698 66.2188V66.2909L191.652 66.327C190.478 67.1554 189.066 67.5801 187.63 67.5372C186.962 67.5425 186.295 67.4629 185.647 67.3003C185.008 67.1624 184.42 66.8505 183.948 66.3991L183.922 66.3733V66.3218C183.963 63.067 183.999 60.3066 184.025 58.3239C184.025 57.3763 184.061 56.6141 184.076 56.0579C184.076 55.8158 184.076 55.6201 184.076 55.4656C184.123 55.3968 184.176 55.333 184.236 55.2751Z" fill="white"/>
<path d="M191.683 55.2956C191.4 55.5691 191.068 55.7874 190.705 55.9394C189.838 56.3355 188.891 56.5258 187.939 56.4956C186.988 56.5354 186.04 56.3703 185.158 56.0115C184.791 55.8691 184.454 55.6595 184.164 55.3935C184.164 55.3523 184.571 55.584 185.23 55.8364C186.101 56.1319 187.02 56.2646 187.939 56.2278C188.857 56.2555 189.771 56.0979 190.627 55.7643C191.281 55.4965 191.657 55.2544 191.683 55.2956Z" fill="white"/>
<path d="M191.683 58.03C191.401 58.3063 191.069 58.5265 190.705 58.6789C189.837 59.0733 188.891 59.2619 187.939 59.23C186.988 59.2724 186.039 59.1072 185.158 58.7459C184.789 58.6082 184.451 58.398 184.164 58.1279C184.164 58.0867 184.571 58.3184 185.23 58.5708C186.101 58.8663 187.02 58.999 187.939 58.9622C188.857 58.9913 189.771 58.8354 190.627 58.5038C191.281 58.2309 191.657 57.994 191.683 58.03Z" fill="white"/>
<path d="M191.683 60.77C191.4 61.0434 191.068 61.2617 190.705 61.4137C189.837 61.8084 188.891 61.9987 187.939 61.9699C186.988 62.0098 186.04 61.8447 185.158 61.4858C184.791 61.3435 184.454 61.1339 184.164 60.8678C184.164 60.8266 184.571 61.0584 185.23 61.3107C186.102 61.6038 187.02 61.7364 187.939 61.7021C188.857 61.7299 189.771 61.5722 190.627 61.2386C191.281 60.9708 191.657 60.7288 191.683 60.77Z" fill="white"/>
<path d="M191.683 63.5046C191.401 63.7796 191.069 63.9981 190.705 64.1484C189.839 64.5479 188.892 64.7385 187.939 64.7046C186.988 64.7444 186.04 64.5793 185.158 64.2205C184.79 64.0805 184.452 63.8706 184.164 63.6025C184.164 63.5613 184.571 63.793 185.23 64.0454C186.101 64.3409 187.02 64.4736 187.939 64.4368C188.857 64.4634 189.77 64.3076 190.627 63.9784C191.281 63.7055 191.657 63.4686 191.683 63.5046Z" fill="white"/>
<path d="M191.713 49.6667C191.726 49.7728 191.726 49.88 191.713 49.986C191.713 50.2195 191.713 50.5285 191.713 50.913C191.713 51.7422 191.713 52.9112 191.713 54.3687V66.3424L191.683 66.2652C192.135 66.6737 192.688 66.9545 193.284 67.0789C193.915 67.2304 194.562 67.3013 195.21 67.29C196.569 67.3197 197.901 66.9176 199.016 66.1416L198.97 66.2446C198.97 59.8483 198.996 54.0236 199.001 49.677V49.7131C198.853 49.4674 198.641 49.2663 198.388 49.1311C198.143 48.9873 197.882 48.8732 197.61 48.7912C197.106 48.6492 196.588 48.5628 196.065 48.5337C195.218 48.4695 194.365 48.5215 193.531 48.6882C193.005 48.7907 192.504 48.9973 192.059 49.2959C191.946 49.3761 191.843 49.4676 191.75 49.5689C191.683 49.6358 191.657 49.677 191.652 49.677C191.647 49.677 191.652 49.6255 191.724 49.5483C191.813 49.4374 191.915 49.3371 192.028 49.2496C192.467 48.9232 192.971 48.6949 193.506 48.5801C194.35 48.3925 195.217 48.3232 196.081 48.3741C196.621 48.3947 197.156 48.4776 197.677 48.6213C198.305 48.7553 198.857 49.1237 199.222 49.6513V49.6925C199.222 54.0391 199.222 59.8637 199.258 66.26V66.3321L199.212 66.3682C198.049 67.188 196.654 67.6139 195.231 67.5836C194.56 67.5889 193.891 67.5128 193.238 67.357C192.586 67.2211 191.984 66.9053 191.502 66.4454L191.477 66.4145V66.363C191.518 61.5117 191.554 57.3454 191.58 54.3687C191.58 52.9112 191.621 51.7473 191.631 50.9182C191.631 50.5371 191.631 50.2332 191.657 50.0015C191.664 49.8883 191.683 49.7761 191.713 49.6667Z" fill="white"/>
<path d="M199.16 55.2956C198.876 55.5691 198.544 55.7874 198.181 55.9394C197.315 56.3369 196.368 56.5274 195.416 56.4956C194.465 56.5354 193.516 56.3703 192.635 56.0115C192.268 55.8691 191.931 55.6595 191.641 55.3935C191.641 55.3523 192.047 55.584 192.707 55.8364C193.578 56.1319 194.496 56.2646 195.416 56.2278C196.334 56.2555 197.248 56.0979 198.104 55.7643C198.758 55.4965 199.134 55.2544 199.16 55.2956Z" fill="white"/>
<path d="M199.16 58.0303C198.877 58.3065 198.545 58.5267 198.181 58.6792C197.315 59.0749 196.368 59.2636 195.416 59.2302C194.464 59.2727 193.515 59.1075 192.635 58.7461C192.265 58.6084 191.927 58.3983 191.641 58.1281C191.641 58.0869 192.047 58.3187 192.707 58.571C193.578 58.8666 194.496 58.9992 195.416 58.9624C196.333 58.9915 197.248 58.8356 198.104 58.5041C198.758 58.2311 199.134 57.9942 199.16 58.0303Z" fill="white"/>
<path d="M199.16 52.4887C198.877 52.765 198.545 52.9852 198.181 53.1377C197.315 53.5334 196.368 53.7221 195.416 53.6887C194.464 53.7312 193.515 53.566 192.635 53.2046C192.267 53.0646 191.929 52.8548 191.641 52.5866C191.641 52.5454 192.047 52.7772 192.707 53.0295C193.578 53.3251 194.496 53.4577 195.416 53.4209C196.333 53.45 197.248 53.2941 198.104 52.9625C198.758 52.6896 199.134 52.4527 199.16 52.4887Z" fill="white"/>
<path d="M199.16 49.6667C198.876 49.9402 198.544 50.1585 198.181 50.3105C197.314 50.7057 196.368 50.896 195.416 50.8667C194.465 50.9065 193.516 50.7414 192.635 50.3826C192.268 50.2402 191.931 50.0306 191.641 49.7646C191.641 49.7234 192.047 49.95 192.707 50.2023C193.578 50.4998 194.496 50.6343 195.416 50.5989C196.334 50.6266 197.248 50.469 198.104 50.1354C198.758 49.8676 199.134 49.6255 199.16 49.6667Z" fill="white"/>
<path d="M199.16 60.77C198.876 61.0434 198.544 61.2617 198.181 61.4137C197.314 61.809 196.368 61.9993 195.416 61.9699C194.465 62.0098 193.516 61.8447 192.635 61.4858C192.268 61.3435 191.931 61.1339 191.641 60.8678C191.641 60.8266 192.047 61.0584 192.707 61.3107C193.579 61.6038 194.496 61.7364 195.416 61.7021C196.334 61.7299 197.248 61.5722 198.104 61.2386C198.758 60.9708 199.134 60.7288 199.16 60.77Z" fill="white"/>
<path d="M199.16 63.5046C198.877 63.7796 198.545 63.9981 198.181 64.1484C197.316 64.5485 196.368 64.739 195.416 64.7046C194.465 64.7444 193.516 64.5793 192.635 64.2205C192.267 64.0805 191.929 63.8706 191.641 63.6025C191.641 63.5613 192.047 63.793 192.707 64.0454C193.578 64.3409 194.496 64.4736 195.416 64.4368C196.333 64.4634 197.247 64.3076 198.104 63.9784C198.758 63.7055 199.134 63.4686 199.16 63.5046Z" fill="white"/>
<path d="M123.8 41.0713H57.7099C55.3719 41.0713 53.4766 42.9666 53.4766 45.3046V70.5447C53.4766 72.8827 55.3719 74.778 57.7099 74.778H123.8C126.138 74.778 128.033 72.8827 128.033 70.5447V45.3046C128.033 42.9666 126.138 41.0713 123.8 41.0713Z" fill="#E0E0E0"/>
<path d="M88.2289 56.4851V57.8241H87.0341V56.5212C85.9739 56.4881 84.9443 56.158 84.0625 55.5684L84.7166 54.111C85.4024 54.5894 86.2012 54.8805 87.0341 54.9556V52.9625C85.7105 52.6432 84.2273 52.2003 84.2273 50.4957C84.2273 49.2288 85.1492 48.1421 87.0341 47.9207V46.6023H88.2289V47.8949C89.0819 47.9416 89.9115 48.1905 90.6494 48.6211L90.052 50.0888C89.4923 49.7616 88.8721 49.5513 88.2289 49.4708V51.4999C89.5524 51.8089 91.0099 52.2518 91.0099 53.9307C91.0099 55.1873 90.1241 56.2585 88.2289 56.4851ZM87.0341 51.2115V49.5172C86.4006 49.6562 86.1483 50.0064 86.1483 50.3978C86.1483 50.7892 86.5191 51.0416 87.0341 51.2115ZM89.0941 54.0852C89.0941 53.6681 88.7439 53.4415 88.234 53.2612V54.9092C88.8263 54.7805 89.0941 54.4663 89.0941 54.0749V54.0852Z" fill="#EBEBEB"/>
<path d="M93.9478 64.9157V65.9457H93.0208V64.9157C92.1998 64.8898 91.4024 64.6347 90.7188 64.1793L91.2337 63.0514C91.7644 63.421 92.382 63.6463 93.0259 63.7055V62.1605C91.9959 61.9133 90.8526 61.5734 90.8526 60.2498C90.8526 59.2713 91.5685 58.4319 93.0259 58.2619V57.2319H93.9529V58.2619C94.6138 58.2958 95.2568 58.4883 95.8275 58.8233L95.364 59.9614C94.931 59.7078 94.4509 59.5449 93.9529 59.4825V61.0275C94.9829 61.2644 96.1056 61.6094 96.1056 62.9124C96.1005 63.9063 95.3949 64.7406 93.9478 64.9157ZM93.0208 60.8318V59.5185C92.5316 59.6267 92.3358 59.8945 92.3358 60.2035C92.3358 60.5125 92.614 60.703 93.0208 60.8318ZM94.6121 63.0566C94.6121 62.7321 94.3443 62.5416 93.9478 62.418V63.6952C94.4061 63.5922 94.6121 63.345 94.6121 63.0566Z" fill="#EBEBEB"/>
<path d="M120.427 51.6082H101.851C100.95 51.6082 100.219 52.3391 100.219 53.2407V63.9991C100.219 64.9007 100.95 65.6316 101.851 65.6316H120.427C121.329 65.6316 122.06 64.9007 122.06 63.9991V53.2407C122.06 52.3391 121.329 51.6082 120.427 51.6082Z" fill="#F5F5F5"/>
<path d="M106.254 54.1882H102.695V55.4809H106.254V54.1882Z" fill="#E0E0E0"/>
<path d="M106.995 58.1383C106.163 58.2769 105.319 58.3235 104.477 58.2773C103.633 58.3233 102.787 58.2767 101.953 58.1383C102.787 58.0063 103.633 57.9614 104.477 58.0044C105.318 57.9613 106.162 58.0061 106.995 58.1383Z" fill="#E0E0E0"/>
<path d="M110.448 58.1382C109.619 58.3236 108.759 58.3236 107.93 58.1382C108.76 57.9598 109.618 57.9598 110.448 58.1382Z" fill="#E0E0E0"/>
<path d="M119.823 58.1383C118.575 58.3237 117.307 58.3237 116.059 58.1383C117.307 57.9598 118.575 57.9598 119.823 58.1383Z" fill="#E0E0E0"/>
<path d="M115.167 58.1383C113.962 58.3237 112.736 58.3237 111.531 58.1383C112.737 57.9598 113.962 57.9598 115.167 58.1383Z" fill="#E0E0E0"/>
<path d="M105.774 61.285C104.539 61.4636 103.286 61.4636 102.051 61.285C103.286 61.1065 104.539 61.1065 105.774 61.285Z" fill="#E0E0E0"/>
<path d="M108.936 62.6189C107.793 62.7543 106.641 62.7991 105.491 62.7528C104.343 62.7992 103.192 62.7544 102.051 62.6189C103.192 62.4864 104.343 62.4417 105.491 62.485C106.641 62.4418 107.793 62.4865 108.936 62.6189Z" fill="#E0E0E0"/>
<path d="M119.824 62.6187C118.862 62.7972 117.876 62.7972 116.914 62.6187C117.386 62.4881 117.878 62.4427 118.366 62.4848C118.856 62.4421 119.35 62.4874 119.824 62.6187Z" fill="#E0E0E0"/>
<path d="M200.407 141.506H200.68C200.946 141.493 201.212 141.458 201.473 141.403C202.598 141.175 203.615 140.577 204.361 139.705C205.108 138.832 205.541 137.735 205.593 136.588C205.624 136.12 205.593 135.63 205.593 135.12C205.593 133.085 205.593 130.745 205.593 128.101C205.593 122.817 205.593 116.354 205.593 108.85C205.593 105.101 205.593 101.094 205.593 96.8302C205.593 94.705 205.593 92.518 205.593 90.2691C205.593 89.1464 205.593 88.0083 205.593 86.8547C205.593 86.283 205.593 85.6959 205.567 85.1294C205.506 84.5548 205.349 83.9944 205.104 83.4711C204.606 82.3975 203.747 81.532 202.678 81.0249C202.14 80.7667 201.562 80.603 200.968 80.5408C200.371 80.4944 199.748 80.5408 199.135 80.5408H175.435H139.972H58.7149C57.833 80.5424 56.9662 80.7693 56.1966 81.2C55.4337 81.6335 54.7953 82.256 54.3426 83.0076C53.8888 83.7579 53.6385 84.6134 53.6164 85.4899C53.6164 86.3757 53.6164 87.2718 53.6164 88.1576C53.6164 91.7146 53.6164 95.2492 53.6164 98.7615V135.805C53.6041 136.21 53.623 136.614 53.6731 137.016C53.7857 137.81 54.0877 138.566 54.5537 139.22C55.0106 139.873 55.6156 140.408 56.3191 140.782C57.0227 141.157 57.8049 141.359 58.6016 141.373H72.9032L139.271 141.403L184.014 141.445L196.179 141.47L184.014 141.496L139.271 141.537L72.8929 141.625H58.5862C57.7522 141.609 56.9336 141.398 56.1966 141.007C55.4569 140.612 54.8188 140.052 54.3323 139.369C53.8429 138.682 53.5266 137.887 53.4104 137.052C53.354 136.639 53.3333 136.222 53.3486 135.805V134.569C53.3486 132.915 53.3486 131.255 53.3486 129.589V88.1473C53.3486 87.2564 53.3486 86.3706 53.3486 85.4693C53.3716 84.5492 53.6343 83.651 54.1108 82.8634C54.5884 82.0693 55.2635 81.4124 56.0703 80.9566C56.8771 80.5008 57.7883 80.2618 58.7149 80.2627H139.972H175.435H199.083C199.701 80.2627 200.309 80.2627 200.932 80.2936C201.849 80.3892 202.726 80.7195 203.479 81.2526C204.231 81.7857 204.833 82.5037 205.227 83.3372C205.479 83.8807 205.639 84.4618 205.701 85.0573C205.747 85.6547 205.701 86.2264 205.727 86.8032V90.2176C205.727 92.463 205.727 94.6501 205.727 96.7787C205.727 101.04 205.727 105.046 205.727 108.799C205.727 116.302 205.727 122.766 205.701 128.05C205.701 130.693 205.701 133.033 205.701 135.069C205.701 135.584 205.701 136.068 205.701 136.537C205.674 136.988 205.591 137.435 205.454 137.865C205.207 138.611 204.799 139.293 204.259 139.864C203.52 140.632 202.567 141.159 201.524 141.378C201.259 141.427 200.991 141.458 200.721 141.47L200.407 141.506Z" fill="#E0E0E0"/>
<path d="M104.944 118.435H100V138.061H104.944V118.435Z" fill="#EBEBEB"/>
<path d="M112.346 124.373H107.402V138.061H112.346V124.373Z" fill="#EBEBEB"/>
<path d="M97.8424 124.373H92.8984V138.061H97.8424V124.373Z" fill="#EBEBEB"/>
<path d="M83.3424 136.238H78.3984V138.061H83.3424V136.238Z" fill="#EBEBEB"/>
<path d="M90.6901 133.488H85.7461V138.061H90.6901V133.488Z" fill="#EBEBEB"/>
<path d="M76.2604 136.542H71.3164V138.061H76.2604V136.542Z" fill="#EBEBEB"/>
<path d="M68.8346 136.542H63.8906V138.061H68.8346V136.542Z" fill="#EBEBEB"/>
<path d="M120.143 127.128H115.199V138.061H120.143V127.128Z" fill="#EBEBEB"/>
<path d="M127.944 130.13H123V138.061H127.944V130.13Z" fill="#EBEBEB"/>
<path d="M135.741 124.373H130.797V138.061H135.741V124.373Z" fill="#EBEBEB"/>
<path d="M143.538 115.823H138.594V138.061H143.538V115.823Z" fill="#EBEBEB"/>
<path d="M151.339 109.242H146.395V138.061H151.339V109.242Z" fill="#EBEBEB"/>
<path d="M159.139 118.435H154.195V138.061H159.139V118.435Z" fill="#EBEBEB"/>
<path d="M166.936 100.816H161.992V138.061H166.936V100.816Z" fill="#EBEBEB"/>
<path d="M174.733 118.435H169.789V138.061H174.733V118.435Z" fill="#EBEBEB"/>
<path d="M182.53 124.373H177.586V138.061H182.53V124.373Z" fill="#EBEBEB"/>
<path d="M190.335 126.942H185.391V138.061H190.335V126.942Z" fill="#EBEBEB"/>
<path d="M198.132 130.13H193.188V138.061H198.132V130.13Z" fill="#EBEBEB"/>
<path d="M67.9766 138.061H68.4607H69.8872H75.3668H77.2466C77.9349 138.073 78.6232 138.036 79.3066 137.953C80.8613 137.765 82.3557 137.238 83.6841 136.408C84.4169 135.943 85.0735 135.368 85.6308 134.703C86.18 133.96 86.6333 133.15 86.9801 132.293C87.7526 130.542 88.453 128.642 89.1688 126.628C89.8847 124.615 90.6005 122.508 91.3679 120.319C91.7541 119.222 92.1455 118.105 92.5987 116.982C93.0551 115.832 93.6208 114.728 94.2879 113.686C94.9839 112.583 95.8356 111.585 96.8166 110.725C97.8287 109.864 98.9845 109.187 100.231 108.727C101.52 108.263 102.878 108.025 104.248 108.021C105.651 107.996 107.05 108.17 108.404 108.536C109.094 108.726 109.763 108.983 110.402 109.304C111.047 109.641 111.653 110.046 112.21 110.514C113.324 111.485 114.235 112.667 114.893 113.99C115.526 115.345 116.043 116.751 116.438 118.192C116.891 119.624 117.344 121.071 117.849 122.513C118.797 125.472 120.121 128.297 121.789 130.918C122.644 132.244 123.763 133.38 125.075 134.255C125.742 134.678 126.483 134.971 127.258 135.121C127.647 135.196 128.042 135.236 128.438 135.239C128.839 135.239 129.241 135.239 129.638 135.177C130.716 135.098 131.767 134.802 132.728 134.307C133.662 133.772 134.463 133.032 135.071 132.144C135.694 131.263 136.214 130.316 136.745 129.383C137.268 128.452 137.742 127.495 138.166 126.515C139.855 122.616 140.906 118.553 142.482 114.804C143.186 112.926 144.017 111.099 144.969 109.334C145.91 107.62 147.104 106.057 148.512 104.699C149.191 104.029 149.946 103.441 150.763 102.948C151.573 102.466 152.437 102.082 153.338 101.805C155.078 101.282 156.895 101.06 158.709 101.151C160.444 101.223 162.158 101.558 163.792 102.145C165.347 102.718 166.78 103.58 168.015 104.684C170.431 106.816 172.182 109.319 174.195 111.297C176.078 113.125 178.375 114.469 180.89 115.216C182.975 115.875 185.131 116.286 187.312 116.441L196.361 116.472H198.694C199.209 116.472 199.487 116.472 199.487 116.472H198.694H196.361L187.312 116.503C185.116 116.36 182.945 115.957 180.844 115.303C178.309 114.578 175.985 113.255 174.067 111.446C172.048 109.453 170.286 106.96 167.887 104.859C166.666 103.775 165.253 102.93 163.72 102.367C162.108 101.789 160.416 101.462 158.704 101.398C156.917 101.31 155.128 101.53 153.415 102.047C151.639 102.603 150.022 103.578 148.703 104.89C147.317 106.232 146.138 107.774 145.206 109.463C144.264 111.22 143.441 113.039 142.744 114.907C141.174 118.646 140.128 122.699 138.429 126.628C138.004 127.616 137.528 128.58 137.002 129.517C136.486 130.475 135.921 131.405 135.308 132.303C134.678 133.225 133.847 133.991 132.877 134.544C131.881 135.062 130.789 135.371 129.668 135.45C129.262 135.507 128.85 135.491 128.443 135.512C128.029 135.509 127.617 135.468 127.212 135.388C126.405 135.233 125.634 134.928 124.941 134.487C123.594 133.594 122.447 132.431 121.573 131.073C119.893 128.431 118.559 125.586 117.602 122.606C117.087 121.159 116.644 119.707 116.196 118.275C115.798 116.847 115.281 115.455 114.651 114.114C114.01 112.819 113.119 111.663 112.03 110.715C111.49 110.256 110.901 109.859 110.274 109.53C109.649 109.217 108.995 108.965 108.322 108.778C106.99 108.413 105.613 108.24 104.233 108.263C102.892 108.265 101.561 108.497 100.298 108.948C97.888 109.874 95.8402 111.552 94.4579 113.733C93.088 115.793 92.3309 118.136 91.5481 120.314C90.7653 122.493 90.0392 124.615 89.3336 126.623C88.6281 128.632 87.9019 130.527 87.1191 132.288C86.7622 133.156 86.2986 133.976 85.7389 134.729C85.1672 135.405 84.495 135.988 83.7459 136.46C82.3977 137.291 80.8845 137.818 79.3117 138.005C78.6281 138.084 77.9397 138.115 77.2517 138.097H75.3411L69.8615 138.071H68.4349C68.1156 138.071 67.9766 138.061 67.9766 138.061Z" fill="#3391FF"/>
<path d="M115.875 92.4836H88.0653C87.8563 92.4836 87.6559 92.5667 87.5081 92.7144C87.3604 92.8622 87.2774 93.0626 87.2774 93.2716V102.835C87.2767 102.939 87.2966 103.042 87.3359 103.137C87.3753 103.233 87.4333 103.321 87.5066 103.394C87.5799 103.467 87.6671 103.525 87.763 103.565C87.8589 103.604 87.9616 103.624 88.0653 103.623H102.135C102.245 103.623 102.353 103.646 102.453 103.69C102.554 103.734 102.643 103.799 102.717 103.881C103.16 104.37 103.747 105.003 104.18 105.467C104.254 105.547 104.344 105.611 104.444 105.655C104.544 105.698 104.652 105.721 104.762 105.721C104.871 105.721 104.979 105.698 105.079 105.655C105.179 105.611 105.269 105.547 105.344 105.467L106.775 103.886C106.849 103.804 106.939 103.74 107.039 103.695C107.139 103.651 107.248 103.628 107.357 103.628H115.875C116.084 103.628 116.285 103.545 116.432 103.397C116.58 103.25 116.663 103.049 116.663 102.84V93.2716C116.662 93.063 116.578 92.8634 116.431 92.7159C116.284 92.5684 116.084 92.485 115.875 92.4836Z" fill="#3391FF"/>
<path d="M85.3741 119.717H62.1991C62.0748 119.717 61.9556 119.766 61.8677 119.854C61.7798 119.942 61.7305 120.061 61.7305 120.185V125.85C61.7305 125.975 61.7798 126.094 61.8677 126.182C61.9556 126.27 62.0748 126.319 62.1991 126.319H70.5524C70.6176 126.319 70.6821 126.332 70.7416 126.359C70.8011 126.386 70.8542 126.425 70.8975 126.474C71.1601 126.762 71.5103 127.143 71.7678 127.416C71.8117 127.464 71.865 127.502 71.9244 127.528C71.9838 127.554 72.048 127.568 72.1129 127.568C72.1777 127.568 72.2419 127.554 72.3013 127.528C72.3607 127.502 72.414 127.464 72.4579 127.416L73.3128 126.479C73.356 126.43 73.4092 126.391 73.4687 126.364C73.5282 126.338 73.5927 126.324 73.6579 126.324H85.3535C85.4778 126.324 85.597 126.275 85.6849 126.187C85.7728 126.099 85.8222 125.98 85.8222 125.856V120.191C85.8236 120.069 85.7777 119.951 85.6941 119.863C85.6104 119.775 85.4957 119.722 85.3741 119.717Z" fill="#F5F5F5"/>
<path d="M105.694 108.062C105.694 108.276 105.631 108.485 105.512 108.663C105.393 108.841 105.224 108.98 105.027 109.062C104.829 109.143 104.612 109.165 104.402 109.123C104.192 109.081 103.999 108.978 103.848 108.827C103.697 108.676 103.594 108.483 103.552 108.273C103.51 108.064 103.532 107.846 103.614 107.649C103.695 107.451 103.834 107.282 104.012 107.163C104.19 107.044 104.399 106.981 104.613 106.981C104.9 106.981 105.175 107.095 105.377 107.298C105.58 107.501 105.694 107.776 105.694 108.062Z" fill="#3391FF"/>
<path d="M104.613 109.18C104.396 109.18 104.184 109.116 104.003 108.995C103.823 108.875 103.682 108.703 103.599 108.503C103.516 108.302 103.494 108.082 103.537 107.869C103.579 107.656 103.684 107.461 103.837 107.307C103.99 107.154 104.186 107.049 104.399 107.007C104.611 106.965 104.832 106.987 105.032 107.07C105.233 107.153 105.404 107.293 105.525 107.474C105.645 107.654 105.71 107.866 105.71 108.083C105.708 108.374 105.592 108.652 105.387 108.857C105.181 109.063 104.903 109.179 104.613 109.18ZM104.613 107.012C104.401 107.012 104.194 107.075 104.017 107.192C103.841 107.31 103.704 107.477 103.623 107.673C103.542 107.869 103.521 108.084 103.562 108.292C103.603 108.5 103.705 108.691 103.855 108.84C104.005 108.99 104.196 109.092 104.404 109.134C104.611 109.175 104.827 109.154 105.023 109.073C105.218 108.992 105.386 108.854 105.503 108.678C105.621 108.502 105.684 108.295 105.684 108.083C105.687 107.941 105.661 107.799 105.608 107.667C105.556 107.534 105.477 107.414 105.377 107.312C105.278 107.211 105.159 107.13 105.027 107.075C104.896 107.02 104.755 106.991 104.613 106.991V107.012Z" fill="#263238"/>
<path d="M46.6996 21.3879H210.799C211.619 21.3879 212.405 21.7135 212.984 22.293C213.564 22.8725 213.889 23.6584 213.889 24.4779V30.9824H43.625V24.4625C43.6291 23.6483 43.9543 22.8687 44.53 22.2929C45.1057 21.7172 45.8854 21.392 46.6996 21.3879Z" fill="#263238"/>
<path d="M49.7957 27.6863C50.5523 27.6863 51.1656 27.073 51.1656 26.3164C51.1656 25.5599 50.5523 24.9465 49.7957 24.9465C49.0391 24.9465 48.4258 25.5599 48.4258 26.3164C48.4258 27.073 49.0391 27.6863 49.7957 27.6863Z" fill="#F5F5F5"/>
<path d="M54.0652 27.6863C54.8218 27.6863 55.4351 27.073 55.4351 26.3164C55.4351 25.5599 54.8218 24.9465 54.0652 24.9465C53.3086 24.9465 52.6953 25.5599 52.6953 26.3164C52.6953 27.073 53.3086 27.6863 54.0652 27.6863Z" fill="#F5F5F5"/>
<path d="M58.3308 27.6863C59.0874 27.6863 59.7007 27.073 59.7007 26.3164C59.7007 25.5599 59.0874 24.9465 58.3308 24.9465C57.5743 24.9465 56.9609 25.5599 56.9609 26.3164C56.9609 27.073 57.5743 27.6863 58.3308 27.6863Z" fill="#F5F5F5"/>
<path d="M227.046 233.48C229.367 233.499 231.623 232.707 233.422 231.24C235.222 229.773 236.453 227.724 236.903 225.446C238.541 217.134 240.647 205.506 240.714 192.445C240.755 184.437 238.963 174.297 236.486 166.695C232.881 155.571 225.125 145.771 213.877 142.562C199.267 138.391 193.978 139.987 183.616 145.426C172.348 151.333 169.299 162.421 157.567 167.354C146.181 172.139 132.446 170.506 122.063 177.201C112.932 183.093 108.477 194.407 108.117 205.269C107.846 211.041 108.407 216.821 109.78 222.434C111.197 228.361 116.547 233.444 122.655 233.496L227.046 233.48Z" fill="#3391FF"/>
<g opacity="0.4">
<path d="M227.05 233.48C229.371 233.499 231.627 232.707 233.426 231.24C235.226 229.773 236.457 227.724 236.907 225.446C238.545 217.134 240.651 205.506 240.718 192.445C240.759 184.437 238.967 174.297 236.49 166.695C232.885 155.571 225.129 145.771 213.881 142.562C199.271 138.391 193.982 139.987 183.62 145.426C172.352 151.333 169.303 162.421 157.571 167.354C146.184 172.139 132.449 170.506 122.067 177.201C112.936 183.093 108.481 194.407 108.121 205.269C107.85 211.041 108.411 216.821 109.784 222.434C111.201 228.361 116.551 233.444 122.659 233.496L227.05 233.48Z" fill="black"/>
</g>
<path d="M219.535 144.53C219.577 144.595 219.613 144.664 219.643 144.736C219.715 144.89 219.813 145.096 219.942 145.359C220.205 145.925 220.575 146.734 221.054 147.764L221.853 149.504C222.141 150.148 222.368 150.864 222.692 151.626C223.017 152.388 223.3 153.207 223.635 154.067C223.969 154.927 224.278 155.865 224.592 156.843C224.907 157.822 225.231 158.857 225.571 159.933C225.756 160.448 225.895 161.025 226.04 161.591C226.184 162.158 226.333 162.73 226.483 163.317L226.941 165.109C227.018 165.408 227.101 165.717 227.178 166.02C227.255 166.324 227.307 166.649 227.368 166.963C227.626 168.23 227.883 169.538 228.151 170.867C229.171 176.691 229.775 182.58 229.959 188.49C230.077 194.395 229.843 200.303 229.258 206.18C228.934 208.884 228.671 211.459 228.228 213.843C228.038 215.038 227.878 216.197 227.677 217.299C227.476 218.401 227.26 219.462 227.064 220.471C226.699 222.501 226.251 224.308 225.89 225.9C225.705 226.698 225.535 227.445 225.375 228.119L224.86 229.973C224.562 231.07 224.345 231.93 224.17 232.548L223.98 233.213C223.964 233.289 223.94 233.363 223.908 233.434C223.916 233.356 223.932 233.278 223.954 233.202C223.99 233.037 224.047 232.816 224.114 232.533C224.263 231.93 224.474 231.065 224.747 229.958C224.886 229.402 225.046 228.778 225.216 228.104C225.386 227.429 225.53 226.677 225.731 225.879C226.076 224.282 226.508 222.475 226.858 220.446C227.051 219.436 227.25 218.381 227.456 217.278C227.646 216.171 227.801 215.012 227.971 213.823C228.373 211.438 228.625 208.863 228.944 206.17C229.513 200.302 229.737 194.405 229.614 188.511C229.433 182.621 228.839 176.751 227.837 170.944C227.579 169.608 227.324 168.311 227.07 167.05L226.884 166.113L226.652 165.196C226.498 164.594 226.349 163.997 226.199 163.409C226.05 162.822 225.906 162.251 225.767 161.684C225.628 161.118 225.489 160.561 225.308 160.031L224.345 156.941C224.047 155.963 223.763 155.025 223.413 154.165C223.063 153.305 222.78 152.481 222.496 151.719C222.213 150.957 221.956 150.236 221.683 149.592L220.936 147.805C220.483 146.775 220.127 145.951 219.875 145.379L219.607 144.746C219.575 144.677 219.551 144.604 219.535 144.53Z" fill="#263238"/>
<path d="M123.529 233.398L113.785 248.658L94.7305 236.627C95.9922 234.881 108.151 237.451 108.151 237.451L113.997 227.419L123.529 233.398Z" fill="#455A64"/>
<g opacity="0.6">
<path d="M114.57 240.345C114.717 240.517 114.795 240.737 114.79 240.963C114.786 241.189 114.698 241.406 114.544 241.571C114.38 241.727 114.163 241.814 113.937 241.814C113.71 241.814 113.493 241.727 113.329 241.571C113.172 241.389 113.088 241.154 113.094 240.914C113.1 240.673 113.194 240.443 113.36 240.268C113.549 240.126 113.786 240.062 114.022 240.091C114.257 240.12 114.472 240.239 114.621 240.423" fill="white"/>
</g>
<g opacity="0.6">
<path d="M113.783 248.657L114.705 247.081L96.103 236.138C96.103 236.138 95.0215 235.973 94.7383 236.653L113.783 248.657Z" fill="white"/>
</g>
<path d="M107.915 237.158C107.859 237.256 108.296 237.59 108.564 238.188C108.832 238.785 108.832 239.321 108.94 239.336C109.048 239.352 109.249 238.728 108.914 238.023C108.58 237.317 107.946 237.06 107.915 237.158Z" fill="#263238"/>
<path d="M105.395 236.725C105.318 236.802 105.617 237.214 105.684 237.807C105.751 238.399 105.581 238.873 105.684 238.924C105.787 238.976 106.168 238.491 106.07 237.755C105.972 237.019 105.452 236.637 105.395 236.725Z" fill="#263238"/>
<path d="M102.747 238.399C102.819 238.471 103.262 238.09 103.324 237.425C103.385 236.761 103.102 236.287 103.015 236.344C102.927 236.4 103.015 236.859 102.948 237.374C102.881 237.889 102.659 238.332 102.747 238.399Z" fill="#263238"/>
<path d="M109.5 235.02C109.5 235.129 109.989 235.273 110.494 235.638C110.999 236.004 111.303 236.431 111.4 236.38C111.498 236.328 111.318 235.752 110.715 235.35C110.113 234.948 109.5 234.917 109.5 235.02Z" fill="#263238"/>
<path d="M111.38 233.048C111.355 233.084 111.684 233.372 112.338 233.645C112.72 233.802 113.119 233.911 113.528 233.97C113.77 234.003 114.015 234.02 114.259 234.021C114.403 234.031 114.547 234.017 114.687 233.98C114.79 233.952 114.88 233.891 114.945 233.807C115.009 233.722 115.043 233.618 115.042 233.511C115.037 233.417 115.009 233.326 114.962 233.244C114.914 233.163 114.848 233.094 114.769 233.043C114.649 232.966 114.519 232.907 114.383 232.868C113.75 232.655 113.073 232.604 112.415 232.718C112.038 232.752 111.68 232.897 111.385 233.135C111.385 233.197 111.808 233.037 112.472 232.986C112.857 232.956 113.245 232.975 113.626 233.043C113.848 233.085 114.067 233.145 114.28 233.223C114.517 233.295 114.687 233.403 114.681 233.527C114.676 233.65 114.681 233.589 114.594 233.619C114.491 233.642 114.385 233.652 114.28 233.65C114.043 233.65 113.811 233.65 113.595 233.619C113.206 233.579 112.821 233.501 112.446 233.388C112.1 233.249 111.743 233.135 111.38 233.048Z" fill="#263238"/>
<path d="M111.417 233.259C111.417 233.29 111.834 233.074 112.251 232.497C112.485 232.152 112.659 231.771 112.766 231.369C112.83 231.129 112.871 230.885 112.89 230.638C112.917 230.479 112.903 230.316 112.849 230.165C112.794 230.013 112.702 229.878 112.581 229.772C112.497 229.717 112.398 229.688 112.298 229.688C112.197 229.688 112.098 229.717 112.014 229.772C111.897 229.854 111.791 229.951 111.7 230.061C111.252 230.582 111.028 231.26 111.077 231.946C111.139 232.677 111.453 233.032 111.484 233.007C111.419 232.654 111.373 232.298 111.345 231.941C111.353 231.563 111.445 231.192 111.613 230.854C111.709 230.665 111.832 230.492 111.978 230.339C112.133 230.153 112.313 230.04 112.375 230.107C112.437 230.174 112.534 230.421 112.514 230.622C112.505 230.846 112.474 231.069 112.421 231.286C112.335 231.66 112.194 232.019 112.004 232.353C111.695 232.924 111.376 233.213 111.417 233.259Z" fill="#263238"/>
<path d="M137.161 185.915L131.326 203.039L109.969 195.885C110.777 193.887 123.199 193.491 123.199 193.491L126.485 182.356L137.161 185.915Z" fill="#455A64"/>
<g opacity="0.6">
<path d="M130.109 194.778C130.293 194.909 130.423 195.103 130.473 195.324C130.523 195.544 130.491 195.775 130.382 195.973C130.259 196.163 130.066 196.298 129.846 196.35C129.625 196.401 129.393 196.366 129.198 196.251C129.002 196.113 128.865 195.906 128.812 195.672C128.76 195.438 128.796 195.193 128.915 194.984C129.064 194.799 129.28 194.679 129.517 194.65C129.753 194.621 129.992 194.686 130.181 194.83" fill="white"/>
</g>
<g opacity="0.6">
<path d="M131.326 203.039L131.841 201.288L111.174 195.082C111.174 195.082 110.082 195.175 109.969 195.885L131.326 203.039Z" fill="white"/>
</g>
<path d="M122.884 193.264C122.853 193.372 123.363 193.593 123.76 194.098C124.156 194.603 124.275 195.128 124.398 195.128C124.522 195.128 124.553 194.464 124.058 193.856C123.564 193.248 122.894 193.161 122.884 193.264Z" fill="#263238"/>
<path d="M120.338 193.439C120.281 193.532 120.672 193.862 120.878 194.423C121.084 194.984 121.033 195.484 121.136 195.515C121.239 195.546 121.507 194.974 121.239 194.284C120.971 193.594 120.374 193.341 120.338 193.439Z" fill="#263238"/>
<path d="M118.169 195.7C118.257 195.757 118.576 195.283 118.499 194.624C118.422 193.965 117.984 193.594 117.937 193.64C117.891 193.686 118.066 194.119 118.118 194.67C118.169 195.221 118.066 195.654 118.169 195.7Z" fill="#263238"/>
<path d="M123.923 190.813C123.923 190.921 124.438 190.936 125.035 191.173C125.632 191.41 126.008 191.75 126.091 191.688C126.173 191.626 125.859 191.096 125.179 190.823C124.499 190.55 123.897 190.71 123.923 190.813Z" fill="#263238"/>
<path d="M125.273 188.449C125.593 188.658 125.963 188.779 126.345 188.799C126.754 188.862 127.169 188.873 127.581 188.83C127.823 188.807 128.064 188.767 128.302 188.711C128.446 188.685 128.585 188.636 128.714 188.567C128.802 188.517 128.872 188.44 128.913 188.348C128.955 188.255 128.966 188.152 128.945 188.052C128.916 187.963 128.866 187.882 128.801 187.814C128.736 187.747 128.657 187.694 128.569 187.661C128.433 187.616 128.291 187.59 128.147 187.584C127.9 187.563 127.652 187.563 127.406 187.584C126.991 187.627 126.587 187.735 126.206 187.903C125.557 188.196 125.253 188.526 125.284 188.562C125.315 188.598 125.67 188.366 126.314 188.155C126.681 188.036 127.061 187.961 127.447 187.934C127.671 187.916 127.897 187.916 128.121 187.934C128.369 187.934 128.564 188.011 128.585 188.13C128.605 188.248 128.585 188.191 128.523 188.243C128.429 188.291 128.328 188.326 128.224 188.346C128.002 188.404 127.777 188.449 127.55 188.48C127.164 188.533 126.775 188.551 126.386 188.531C126.018 188.476 125.646 188.448 125.273 188.449Z" fill="#263238"/>
<path d="M125.361 188.644C125.392 188.67 125.727 188.366 125.99 187.702C126.14 187.312 126.224 186.899 126.237 186.482C126.243 186.235 126.224 185.988 126.18 185.745C126.168 185.583 126.115 185.426 126.024 185.291C125.934 185.156 125.81 185.046 125.665 184.973C125.569 184.941 125.467 184.939 125.37 184.966C125.273 184.992 125.186 185.046 125.119 185.122C125.024 185.229 124.942 185.349 124.877 185.477C124.76 185.704 124.678 185.947 124.635 186.198C124.559 186.618 124.589 187.05 124.723 187.455C124.954 188.15 125.346 188.418 125.366 188.387C125.219 188.062 125.09 187.728 124.98 187.388C124.9 187.018 124.9 186.635 124.98 186.265C125.027 186.053 125.104 185.849 125.207 185.658C125.315 185.441 125.464 185.287 125.542 185.338C125.619 185.39 125.768 185.601 125.799 185.812C125.841 186.033 125.864 186.257 125.866 186.482C125.87 186.866 125.819 187.249 125.717 187.62C125.552 188.253 125.31 188.608 125.361 188.644Z" fill="#263238"/>
<path d="M172.526 181.012C172.526 181.012 156.452 155.216 152.044 148.052C146.935 139.776 136.46 140.842 133.947 148.299C134.508 146.621 131.99 154.016 123.508 181.635L137.799 185.724L146.992 177.917L150.638 188.346L172.526 181.012Z" fill="#263238"/>
<path d="M170.418 152.27L164.567 172.283L142.922 174.606V178.447L174.728 178.885L179.059 152.826L170.418 152.27Z" fill="#FFBE9D"/>
<path d="M175.57 179.663H146.024C143.724 179.663 141.45 180.15 139.352 181.094C137.254 182.038 135.381 183.416 133.855 185.137C132.832 186.314 132.073 187.696 131.63 189.19L110 229.546L123.817 237.178L149.65 200.335L164.07 200.51L196.216 180.44L175.57 179.663Z" fill="#263238"/>
<path d="M146.23 192.445C146.529 192.743 146.786 193.081 146.992 193.45C147.536 194.31 148 195.218 148.378 196.164C148.752 197.107 149.042 198.083 149.243 199.079C149.345 199.488 149.394 199.908 149.387 200.33C149.299 200.33 149.011 198.445 148.125 196.261C147.239 194.078 146.158 192.492 146.23 192.445Z" fill="#455A64"/>
<path d="M115.706 156.014L127.721 179.663H165.656L164.111 176.573L153.121 176.243L144.201 156.313C143.93 155.701 143.486 155.18 142.925 154.815C142.364 154.449 141.709 154.254 141.039 154.253H116.783C116.575 154.252 116.371 154.304 116.189 154.405C116.008 154.506 115.855 154.652 115.747 154.83C115.639 155.007 115.578 155.209 115.571 155.417C115.564 155.624 115.61 155.83 115.706 156.014Z" fill="#E0E0E0"/>
<path d="M135.117 166.479C135.117 166.784 135.027 167.083 134.857 167.337C134.687 167.591 134.446 167.789 134.164 167.906C133.881 168.023 133.571 168.054 133.271 167.994C132.971 167.935 132.696 167.787 132.48 167.571C132.264 167.355 132.117 167.08 132.057 166.78C131.997 166.481 132.028 166.17 132.145 165.888C132.262 165.605 132.46 165.364 132.714 165.194C132.968 165.024 133.267 164.934 133.572 164.934C133.982 164.934 134.375 165.097 134.665 165.386C134.955 165.676 135.117 166.069 135.117 166.479Z" fill="#263238"/>
<path d="M212.013 139.148C210.751 133.436 202.228 131.268 198.386 131.258C193.025 131.258 193.509 130.918 188.241 131.866H187.545C171.529 131.217 169.685 153.218 169.685 153.218L176.988 153.81L175.057 168.966L169.469 179.694L200.23 179.647L201.95 154.603L214.825 154.263C214.825 154.263 213.29 144.921 212.013 139.148Z" fill="#3391FF"/>
<path d="M177.871 143.901C177.953 143.901 177.412 149.252 176.661 155.834C175.909 162.416 175.239 167.736 175.157 167.73C175.074 167.725 175.615 162.38 176.367 155.798C177.119 149.216 177.788 143.891 177.871 143.901Z" fill="#263238"/>
<g opacity="0.2">
<path d="M201.366 143.901C200.053 150.174 198.343 156.617 197.035 162.89C196.752 164.223 196.453 165.604 195.639 166.69C195.102 167.352 194.473 167.933 193.77 168.415C191.195 170.352 188.46 172.17 185.422 173.277C189.811 172.906 194.159 172.15 198.415 171.016C199.159 170.889 199.843 170.529 200.367 169.986C200.731 169.431 200.934 168.786 200.954 168.122C201.897 160.083 201.624 151.977 201.366 143.881" fill="black"/>
</g>
<path d="M158.879 171.804L168.406 170.661L175.127 175.064L200.851 168.92L201.603 154.582L213.139 154.294L212.866 171.124C212.837 172.411 212.554 173.679 212.033 174.857C211.513 176.034 210.765 177.097 209.833 177.985C208.902 178.873 207.804 179.568 206.603 180.031C205.401 180.494 204.121 180.715 202.834 180.683L165.198 179.653L163.596 176.449L155.531 176.181L158.879 171.804Z" fill="#FFBE9D"/>
<path d="M200.851 168.92C200.694 168.982 200.532 169.032 200.367 169.069L198.972 169.43L193.822 170.717L176.785 174.837L175.199 175.213H175.137L175.081 175.177L168.386 170.764H168.473L158.936 171.866L158.997 171.83L156.479 175.028L155.799 175.872C155.726 175.974 155.641 176.067 155.547 176.151C155.609 176.042 155.679 175.939 155.758 175.842L156.397 174.966L158.848 171.716L158.874 171.685H158.91L168.406 170.522H168.458H168.499L175.225 174.92H175.107L176.693 174.539L193.755 170.496L198.93 169.301L200.342 168.992C200.509 168.954 200.68 168.93 200.851 168.92Z" fill="#EB996E"/>
<path d="M164.411 174.539C163.183 174.688 161.945 174.738 160.708 174.688H160.029L160.126 174.652C159.379 175.334 158.577 175.953 157.727 176.501C158.401 175.751 159.14 175.061 159.936 174.441L159.977 174.405H160.708C161.944 174.35 163.183 174.395 164.411 174.539Z" fill="#EB996E"/>
<path d="M205.325 171.304C204.835 170.534 204.198 169.869 203.45 169.347C202.173 168.523 200.875 168.601 200.875 168.508C201.14 168.41 201.427 168.387 201.704 168.441C202.38 168.51 203.031 168.734 203.606 169.096C204.181 169.458 204.666 169.947 205.021 170.527C205.19 170.754 205.295 171.023 205.325 171.304Z" fill="#EB996E"/>
<path d="M214.829 154.361L212.022 154.464C209.653 154.536 206.357 154.619 202.752 154.691L201.593 154.717H201.444V154.572C201.315 151.215 201.372 148.222 201.444 146.075C201.475 144.998 201.516 144.138 201.552 143.541C201.555 143.232 201.584 142.923 201.64 142.619C201.672 142.927 201.681 143.237 201.665 143.546C201.665 144.19 201.665 145.04 201.665 146.08C201.665 148.227 201.629 151.23 201.768 154.557L201.614 154.418H202.778C206.383 154.346 209.679 154.299 212.048 154.279H214.86C215.493 154.248 213.799 154.32 214.829 154.361Z" fill="#263238"/>
<path d="M195.012 154.448C194.908 154.705 194.784 154.953 194.641 155.19C194.517 155.427 194.363 155.705 194.157 156.03C193.951 156.354 193.74 156.725 193.462 157.111C192.83 158.032 192.142 158.912 191.402 159.748C190.488 160.766 189.505 161.721 188.461 162.606C187.405 163.476 186.292 164.275 185.129 164.996C184.175 165.572 183.186 166.088 182.168 166.541C181.735 166.747 181.328 166.896 180.978 167.056C180.628 167.215 180.319 167.308 180.067 167.385C179.811 167.489 179.545 167.567 179.273 167.617C179.517 167.487 179.77 167.377 180.03 167.287C180.278 167.195 180.582 167.076 180.921 166.922C181.261 166.767 181.663 166.608 182.085 166.407C183.084 165.929 184.055 165.396 184.995 164.81C187.302 163.376 189.396 161.625 191.216 159.609C191.959 158.789 192.657 157.929 193.307 157.034C193.59 156.653 193.822 156.292 194.033 155.978C194.244 155.664 194.414 155.396 194.548 155.169C194.682 154.917 194.837 154.675 195.012 154.448Z" fill="#263238"/>
<path d="M211.452 138.087C211.327 138.099 211.201 138.099 211.076 138.087L210 138.051L206.05 137.896C202.713 137.783 198.103 137.695 193.015 137.762C187.927 137.829 183.318 138.056 179.986 138.277L176.041 138.535L174.97 138.602C174.845 138.613 174.719 138.613 174.594 138.602C174.715 138.568 174.839 138.549 174.965 138.545L176.031 138.427C176.963 138.329 178.307 138.21 179.97 138.082C183.302 137.824 187.912 137.567 193.01 137.505C198.109 137.443 202.723 137.556 206.06 137.721C207.724 137.798 209.073 137.881 210.005 137.953L211.076 138.041C211.203 138.044 211.329 138.06 211.452 138.087Z" fill="#FAFAFA"/>
<path d="M177.222 148.562C174.973 148.741 172.714 148.741 170.465 148.562C172.714 148.384 174.973 148.384 177.222 148.562Z" fill="#FAFAFA"/>
<path d="M201.317 149.726C201.241 149.755 201.161 149.773 201.08 149.778L200.385 149.881C199.782 149.963 198.912 150.066 197.81 150.179C195.647 150.401 192.66 150.643 189.333 150.772C186.006 150.9 183.014 150.895 180.84 150.839C179.754 150.813 178.873 150.777 178.265 150.741L177.57 150.694C177.488 150.694 177.407 150.682 177.328 150.658C177.408 150.646 177.49 150.646 177.57 150.658H178.271H180.846C183.019 150.658 186.021 150.658 189.328 150.514C192.634 150.37 195.631 150.174 197.794 149.999L200.369 149.788L201.07 149.736C201.151 149.719 201.234 149.715 201.317 149.726Z" fill="#FAFAFA"/>
<path d="M213.728 147.62C213.728 147.692 210.988 148.001 207.594 148.304C204.2 148.608 201.445 148.789 201.414 148.716C201.383 148.644 204.154 148.335 207.548 148.037C210.942 147.738 213.697 147.547 213.728 147.62Z" fill="#FAFAFA"/>
<path d="M186.993 163.296C186.459 163.39 185.918 163.433 185.376 163.425C184.372 163.466 182.986 163.487 181.452 163.451C179.917 163.415 178.537 163.327 177.538 163.24C176.995 163.219 176.456 163.15 175.926 163.034C176.466 162.991 177.008 162.991 177.548 163.034C178.552 163.075 179.932 163.126 181.462 163.162C182.992 163.198 184.372 163.214 185.371 163.224C185.913 163.206 186.455 163.23 186.993 163.296Z" fill="#FAFAFA"/>
<path d="M201.139 163.739C200.951 163.802 200.756 163.844 200.557 163.863C200.181 163.929 199.636 164.007 198.956 164.094C197.601 164.259 195.716 164.434 193.631 164.517C191.545 164.599 189.655 164.568 188.29 164.517C187.605 164.486 187.054 164.45 186.673 164.414C186.475 164.411 186.277 164.383 186.086 164.331C186.283 164.309 186.481 164.309 186.678 164.331H188.295C189.66 164.331 191.545 164.331 193.62 164.264C195.696 164.197 197.576 164.038 198.935 163.919L200.547 163.775C200.742 163.738 200.941 163.726 201.139 163.739Z" fill="#FAFAFA"/>
<path d="M178.818 173.596C177.908 173.543 177.015 173.319 176.187 172.937C175.324 172.633 174.524 172.172 173.828 171.577C173.874 171.51 174.91 172.139 176.285 172.69C177.66 173.241 178.834 173.519 178.818 173.596Z" fill="#FAFAFA"/>
<path d="M191.662 103.402H191.147C188.811 103.39 186.555 104.254 184.824 105.823C183.093 107.392 182.012 109.552 181.795 111.879C181.434 116.323 181.099 121.236 181.135 123.621C181.208 128.559 186.285 129.317 186.285 129.317L186.095 133.699C186.042 135.271 186.604 136.802 187.662 137.967C188.72 139.131 190.19 139.838 191.76 139.936C192.557 139.982 193.355 139.87 194.109 139.606C194.862 139.342 195.556 138.931 196.149 138.397C196.743 137.863 197.224 137.216 197.566 136.495C197.908 135.773 198.103 134.991 198.141 134.194L199.171 113.341C199.629 108.212 196.936 103.69 191.662 103.402Z" fill="#FFBE9D"/>
<path d="M186.219 129.306C188.566 129.305 190.866 128.645 192.857 127.401C192.857 127.401 191.312 130.96 186.239 130.522L186.219 129.306Z" fill="#EB996E"/>
<path d="M198.431 116.998C198.519 116.962 201.913 115.968 201.81 119.362C201.707 122.755 198.246 121.937 198.246 121.844C198.246 121.751 198.431 116.998 198.431 116.998Z" fill="#FFBE9D"/>
<path d="M199.036 120.592C199.036 120.592 199.093 120.639 199.196 120.685C199.34 120.742 199.5 120.742 199.644 120.685C199.87 120.557 200.058 120.37 200.186 120.145C200.315 119.919 200.38 119.663 200.375 119.403C200.396 119.112 200.346 118.821 200.231 118.553C200.202 118.446 200.146 118.348 200.07 118.267C199.994 118.186 199.899 118.125 199.793 118.09C199.725 118.07 199.653 118.074 199.587 118.101C199.522 118.129 199.467 118.177 199.433 118.239C199.381 118.332 199.402 118.404 199.381 118.409C199.361 118.414 199.309 118.347 199.345 118.208C199.366 118.125 199.415 118.052 199.484 118.002C199.585 117.942 199.703 117.919 199.819 117.935C199.956 117.963 200.084 118.025 200.19 118.115C200.297 118.205 200.38 118.32 200.432 118.45C200.57 118.746 200.632 119.072 200.612 119.398C200.615 119.701 200.529 119.998 200.364 120.253C200.199 120.508 199.963 120.708 199.685 120.829C199.592 120.854 199.495 120.857 199.401 120.839C199.306 120.821 199.217 120.783 199.139 120.726C199.036 120.675 199.021 120.598 199.036 120.592Z" fill="#EB996E"/>
<path d="M196.159 106.966L181.703 107.275C182.203 106.312 182.934 105.489 183.83 104.88C185.724 103.461 188.01 102.661 190.376 102.588C192.729 102.547 197.529 105.343 199.234 106.924C200.604 108.191 200.593 109.288 200.593 109.288C200.81 111.117 199.764 113.187 199.347 114.953C199.131 115.88 198.714 118.672 198.714 118.672C197.915 118.672 197.622 118.054 197.745 117.286L197.89 114.279C197.098 113.677 196.53 112.829 196.272 111.869C196.015 110.909 196.084 109.891 196.468 108.974C196.674 108.727 197.112 107.475 196.159 106.966Z" fill="#263238"/>
<path d="M193.123 117.637C193.135 117.639 193.146 117.639 193.157 117.636C193.168 117.634 193.179 117.629 193.188 117.622C193.197 117.615 193.205 117.607 193.211 117.597C193.216 117.587 193.22 117.576 193.221 117.564C193.224 117.553 193.225 117.542 193.224 117.53C193.222 117.519 193.219 117.508 193.213 117.497C193.207 117.487 193.2 117.479 193.19 117.471C193.181 117.464 193.171 117.459 193.159 117.456C193.136 117.453 193.112 117.46 193.092 117.474C193.073 117.489 193.06 117.51 193.056 117.534C193.052 117.556 193.056 117.579 193.069 117.599C193.081 117.618 193.101 117.632 193.123 117.637Z" fill="#EB996E"/>
<path d="M191.632 117.312C191.645 117.313 191.658 117.312 191.67 117.308C191.682 117.305 191.694 117.299 191.704 117.291C191.714 117.282 191.723 117.272 191.729 117.261C191.735 117.25 191.739 117.237 191.74 117.224C191.747 117.2 191.744 117.175 191.732 117.153C191.721 117.131 191.702 117.114 191.678 117.106C191.665 117.104 191.652 117.106 191.64 117.109C191.627 117.113 191.616 117.119 191.606 117.127C191.596 117.135 191.587 117.145 191.581 117.157C191.575 117.168 191.571 117.18 191.57 117.193C191.563 117.217 191.566 117.243 191.577 117.265C191.589 117.287 191.608 117.304 191.632 117.312Z" fill="#EB996E"/>
<path d="M190.634 117.291C190.68 117.291 190.727 117.24 190.737 117.163C190.747 117.085 190.737 117.024 190.665 117.018C190.593 117.013 190.572 117.07 190.567 117.142C190.562 117.214 190.588 117.286 190.634 117.291Z" fill="#EB996E"/>
<path d="M192.392 118.548C192.439 118.548 192.48 118.522 192.475 118.496C192.469 118.471 192.439 118.44 192.392 118.44C192.346 118.44 192.305 118.465 192.305 118.496C192.305 118.527 192.346 118.548 192.392 118.548Z" fill="#EB996E"/>
<path d="M191.032 118.244C191.056 118.244 191.078 118.235 191.096 118.219C191.113 118.202 191.123 118.18 191.125 118.156C191.127 118.133 191.121 118.109 191.107 118.089C191.092 118.07 191.071 118.057 191.047 118.053C191.024 118.053 191.001 118.062 190.983 118.079C190.966 118.095 190.956 118.117 190.955 118.141C190.952 118.153 190.953 118.165 190.955 118.177C190.958 118.189 190.963 118.2 190.971 118.209C190.978 118.219 190.987 118.227 190.998 118.233C191.008 118.239 191.02 118.243 191.032 118.244Z" fill="#EB996E"/>
<path d="M183.92 117.42C183.938 117.425 183.957 117.424 183.975 117.418C183.992 117.412 184.008 117.401 184.019 117.386C184.03 117.371 184.036 117.353 184.037 117.334C184.038 117.316 184.033 117.297 184.023 117.282C184.013 117.266 183.999 117.253 183.982 117.246C183.965 117.238 183.946 117.236 183.928 117.239C183.91 117.242 183.893 117.251 183.88 117.264C183.866 117.277 183.857 117.294 183.853 117.312C183.849 117.335 183.853 117.359 183.865 117.379C183.878 117.399 183.898 117.414 183.92 117.42Z" fill="#EB996E"/>
<path d="M182.909 117.343C182.955 117.343 182.996 117.302 183.006 117.245C183.004 117.229 182.998 117.213 182.987 117.201C182.977 117.188 182.963 117.178 182.948 117.173C182.932 117.168 182.916 117.167 182.9 117.171C182.884 117.174 182.869 117.183 182.858 117.194C182.846 117.206 182.838 117.22 182.834 117.236C182.831 117.252 182.831 117.269 182.837 117.284C182.842 117.3 182.852 117.314 182.864 117.324C182.877 117.334 182.892 117.341 182.909 117.343Z" fill="#EB996E"/>
<path d="M184.818 117.456C184.839 117.46 184.86 117.456 184.878 117.446C184.896 117.435 184.909 117.419 184.916 117.399C184.919 117.389 184.919 117.379 184.916 117.368C184.914 117.358 184.91 117.348 184.903 117.34C184.897 117.332 184.889 117.325 184.879 117.32C184.87 117.315 184.86 117.312 184.849 117.312C184.829 117.307 184.807 117.309 184.788 117.318C184.769 117.328 184.754 117.344 184.746 117.363C184.745 117.385 184.751 117.407 184.765 117.424C184.778 117.441 184.797 117.452 184.818 117.456Z" fill="#EB996E"/>
<path d="M184.07 118.45C184.093 118.457 184.118 118.455 184.14 118.444C184.162 118.434 184.179 118.416 184.189 118.393C184.195 118.383 184.199 118.371 184.2 118.359C184.202 118.347 184.201 118.335 184.198 118.324C184.194 118.312 184.188 118.301 184.181 118.292C184.173 118.283 184.163 118.275 184.153 118.27C184.141 118.266 184.129 118.264 184.117 118.265C184.104 118.265 184.093 118.268 184.082 118.273C184.071 118.279 184.061 118.286 184.053 118.295C184.044 118.304 184.038 118.315 184.034 118.326C184.023 118.348 184.02 118.372 184.027 118.395C184.034 118.419 184.049 118.438 184.07 118.45Z" fill="#EB996E"/>
<path d="M183.205 118.275C183.215 118.274 183.225 118.27 183.234 118.265C183.243 118.26 183.25 118.253 183.256 118.245C183.262 118.237 183.266 118.227 183.268 118.217C183.27 118.207 183.269 118.197 183.267 118.187C183.259 118.168 183.244 118.152 183.225 118.144C183.206 118.135 183.184 118.134 183.164 118.141C183.145 118.145 183.127 118.156 183.116 118.172C183.104 118.189 183.099 118.209 183.102 118.229C183.106 118.239 183.111 118.248 183.118 118.256C183.126 118.263 183.134 118.27 183.144 118.274C183.154 118.278 183.164 118.281 183.175 118.281C183.185 118.281 183.196 118.279 183.205 118.275Z" fill="#EB996E"/>
<path d="M199.333 107.12C199.495 106.498 199.506 105.846 199.364 105.219C199.223 104.591 198.933 104.007 198.52 103.515C198.101 103.01 197.571 102.608 196.972 102.34C196.373 102.072 195.72 101.945 195.064 101.97C194.396 102.069 193.721 102.117 193.045 102.114C191.794 101.98 190.831 101.007 189.672 100.533C188.759 100.182 187.757 100.14 186.818 100.413C185.879 100.687 185.056 101.261 184.475 102.047C184.033 102.686 183.744 103.479 183.075 103.881C182.493 104.231 181.756 104.2 181.102 104.396C180.456 104.607 179.895 105.023 179.505 105.58C179.115 106.137 178.917 106.806 178.939 107.486C179.004 108.163 179.254 108.81 179.662 109.355C180.07 109.9 180.62 110.323 181.252 110.576C181.896 110.825 182.588 110.93 183.278 110.883C183.967 110.836 184.638 110.638 185.243 110.303C186.335 109.71 187.303 108.706 188.559 108.758C189.816 108.809 190.98 109.983 192.247 109.736C192.892 109.537 193.469 109.16 193.91 108.65C194.353 108.137 194.962 107.796 195.63 107.687C196.31 107.645 196.66 108.552 196.418 109.17L199.333 107.151" fill="#263238"/>
<path d="M181.984 105.488V105.539C181.984 105.57 182.031 105.616 182.072 105.673C182.187 105.845 182.325 105.999 182.484 106.131C182.989 106.561 183.64 106.78 184.302 106.741C184.964 106.703 185.586 106.411 186.037 105.925C186.396 105.449 186.729 104.953 187.037 104.442C187.22 104.185 187.459 103.974 187.737 103.824C188.036 103.682 188.364 103.612 188.695 103.618C189.039 103.628 189.375 103.718 189.678 103.881C189.986 104.047 190.239 104.299 190.405 104.607C190.56 104.931 190.732 105.248 190.92 105.555C191.02 105.711 191.156 105.842 191.316 105.937C191.476 106.032 191.656 106.088 191.841 106.1C192.205 106.111 192.564 106.013 192.871 105.817C193.155 105.648 193.413 105.44 193.639 105.199C194.016 104.743 194.511 104.4 195.071 104.205C195.323 104.158 195.582 104.164 195.832 104.221C196.081 104.279 196.317 104.387 196.523 104.54C196.868 104.784 197.143 105.114 197.321 105.498C197.457 105.787 197.557 106.091 197.62 106.404C197.671 106.662 197.697 106.868 197.718 107.002C197.718 107.073 197.729 107.144 197.749 107.213V107.156C197.749 107.125 197.749 107.069 197.749 107.002C197.735 106.798 197.711 106.595 197.676 106.394C197.624 106.074 197.53 105.763 197.398 105.467C197.218 105.069 196.94 104.724 196.59 104.463C196.372 104.297 196.122 104.179 195.856 104.116C195.59 104.053 195.314 104.047 195.045 104.097C194.46 104.292 193.942 104.65 193.551 105.127C193.33 105.358 193.078 105.559 192.805 105.725C192.525 105.898 192.202 105.989 191.872 105.987C191.705 105.972 191.543 105.918 191.401 105.828C191.258 105.739 191.139 105.617 191.054 105.472C190.858 105.194 190.729 104.854 190.539 104.535C190.359 104.206 190.089 103.936 189.761 103.757C189.444 103.587 189.091 103.493 188.731 103.484C188.375 103.474 188.021 103.55 187.701 103.706C187.405 103.864 187.151 104.09 186.959 104.365C186.578 104.88 186.352 105.441 185.981 105.843C185.627 106.22 185.167 106.482 184.662 106.595C184.242 106.687 183.806 106.667 183.395 106.538C183.087 106.441 182.799 106.287 182.546 106.085C182.334 105.911 182.145 105.71 181.984 105.488Z" fill="#455A64"/>
<path d="M179.365 105.539C179.329 105.624 179.31 105.715 179.308 105.807C179.287 106.061 179.311 106.318 179.381 106.564C179.487 106.93 179.672 107.269 179.921 107.558C180.238 107.908 180.629 108.185 181.065 108.366C181.866 108.68 182.737 108.776 183.588 108.645C183.843 108.609 184.096 108.559 184.345 108.495C184.439 108.481 184.529 108.452 184.613 108.408C184.613 108.408 184.216 108.48 183.583 108.547C182.752 108.651 181.907 108.546 181.126 108.243C180.709 108.069 180.333 107.807 180.024 107.475C179.781 107.204 179.597 106.884 179.484 106.538C179.387 106.214 179.347 105.876 179.365 105.539Z" fill="#455A64"/>
<path d="M217.068 155.53C216.981 162.153 212.948 168.256 207.675 172.278C202.401 176.3 196.015 178.53 189.65 180.363C183.284 182.197 176.775 183.716 170.78 186.543C162.489 190.468 154.815 195.849 150.118 203.739C145.422 211.629 143.763 221.996 144.289 231.153L214.756 224.118L218.613 184.076L217.068 155.53Z" fill="#3391FF"/>
<path d="M153.94 198.126C153.889 198.227 153.829 198.324 153.76 198.414L153.199 199.207C152.951 199.547 152.642 199.959 152.328 200.464C152.014 200.969 151.612 201.52 151.252 202.184C150.891 202.848 150.448 203.533 150.062 204.331C149.676 205.13 149.259 205.969 148.857 206.876C148.02 208.861 147.331 210.906 146.797 212.994C146.306 215.088 145.955 217.213 145.747 219.354C145.654 220.343 145.571 221.285 145.546 222.166C145.52 223.047 145.494 223.871 145.484 224.622C145.474 225.374 145.484 226.054 145.515 226.652C145.546 227.249 145.551 227.764 145.577 228.197C145.602 228.629 145.607 228.918 145.618 229.165C145.631 229.278 145.631 229.392 145.618 229.505C145.588 229.395 145.571 229.283 145.566 229.17C145.54 228.923 145.51 228.603 145.474 228.207C145.438 227.81 145.386 227.275 145.365 226.662C145.345 226.049 145.288 225.385 145.293 224.628C145.298 223.871 145.293 223.052 145.319 222.161C145.345 221.27 145.417 220.333 145.499 219.333C145.706 217.177 146.064 215.038 146.571 212.932C147.099 210.833 147.788 208.777 148.631 206.783C149.043 205.876 149.434 205.011 149.867 204.234C150.299 203.456 150.701 202.735 151.087 202.086C151.473 201.437 151.875 200.886 152.205 200.387C152.534 199.887 152.853 199.48 153.116 199.145L153.714 198.388C153.779 198.293 153.855 198.205 153.94 198.126Z" fill="#263238"/>
<g opacity="0.4">
<path d="M217.068 155.53C216.981 162.153 212.948 168.255 207.675 172.278C202.401 176.3 196.015 178.53 189.65 180.363C183.284 182.196 176.775 183.716 170.78 186.543C162.489 190.467 154.815 195.849 150.118 203.739C145.422 211.629 143.763 221.996 144.289 231.152L214.756 224.117L218.613 184.076L217.068 155.53Z" fill="black"/>
</g>
<path d="M54.4818 185.323C51.3924 182.235 47.5534 180.004 43.3414 178.848C39.1295 177.693 34.6894 177.652 30.457 178.731C37.6274 183.616 46.0888 186.258 54.765 186.322" fill="#3391FF"/>
<path d="M46.3468 156.467C47.3768 149.386 44.5958 141.424 39.2964 136.279C39.1213 143.294 42.0826 151.189 46.3468 156.467Z" fill="#3391FF"/>
<path d="M50.5677 169.842C46.7392 162.57 40.6444 156.745 33.207 153.249C34.3701 157.324 36.5977 161.016 39.6606 163.945C42.7236 166.874 46.5114 168.934 50.6346 169.914" fill="#3391FF"/>
<path d="M51.4464 172.422C47.1667 172.54 42.8407 172.391 38.7053 171.294C34.5698 170.197 30.6095 168.096 27.8594 164.826C36.2361 164.85 44.4187 167.35 51.3794 172.01" fill="#3391FF"/>
<path d="M49.2734 163.919C51.4467 155.788 55.026 150.159 61.4223 145.601C61.9118 149.601 60.9569 153.644 58.7296 157.003C56.5022 160.361 53.1489 162.814 49.2734 163.919Z" fill="#3391FF"/>
<path d="M65.4067 177.948C65.4224 175.576 64.7366 173.252 63.4354 171.268C62.1343 169.284 60.2759 167.729 58.0938 166.798C58.4491 170.996 61.7502 175.857 65.4067 177.948Z" fill="#3391FF"/>
<path d="M67.4648 171.093C67.7615 167.687 69.0253 164.437 71.1074 161.725C73.1895 159.014 76.0033 156.953 79.2171 155.787C77.7442 162.585 73.8096 168.245 67.4648 171.093Z" fill="#3391FF"/>
<path d="M64.375 183.263C65.8839 181.105 68.3456 179.766 70.8897 179.096C73.4338 178.427 76.0964 178.37 78.728 178.319C76.9344 180.264 74.7407 181.798 72.2977 182.815C69.8546 183.833 67.2203 184.308 64.5758 184.21" fill="#3391FF"/>
<path d="M61.3242 200.603C66.1224 199.124 71.3004 199.496 75.8379 201.646C80.3753 203.796 83.9431 207.567 85.8382 212.216C76.9339 210.527 68.148 206.551 61.3242 200.603Z" fill="#3391FF"/>
<path d="M51.5516 194.577C53.0297 198.949 52.7464 204.233 49.4556 208.003C48.8015 205.748 48.6502 203.377 49.0124 201.057C49.3745 198.738 50.2413 196.525 51.5516 194.577Z" fill="#3391FF"/>
<path d="M45.773 192.146C45.5296 194.962 44.5661 197.668 42.9752 200.004C41.3843 202.34 39.2193 204.227 36.6884 205.485C36.5707 205.561 36.4387 205.612 36.3005 205.635C36.1624 205.658 36.021 205.652 35.885 205.619C35.4833 205.454 35.4473 204.908 35.4988 204.475C36.1425 198.872 40.2934 193.454 45.773 192.115" fill="#3391FF"/>
<path d="M41.9969 191.58C40.7418 192.936 39.2216 194.019 37.5305 194.763C35.8395 195.507 34.0136 195.896 32.1662 195.905C30.3187 195.914 28.4891 195.544 26.7907 194.816C25.0923 194.089 23.5614 193.021 22.293 191.678C28.5554 190.993 35.786 190.535 41.9969 191.58Z" fill="#3391FF"/>
<path d="M41.0625 141.496C41.0797 141.557 41.1003 141.617 41.1243 141.676C41.1706 141.81 41.2324 141.985 41.3148 142.191C41.4899 142.67 41.7423 143.35 42.0667 144.22C42.3912 145.091 42.7929 146.183 43.2461 147.439L43.9722 149.448C44.2194 150.164 44.4872 150.921 44.755 151.714C45.8623 154.886 47.0931 158.697 48.427 162.936C49.7608 167.174 51.105 171.871 52.4543 176.815C53.8036 181.759 54.9675 186.512 55.9717 190.843C56.976 195.175 57.7897 199.083 58.3922 202.395C58.5519 203.219 58.6961 204.007 58.8403 204.748C58.9845 205.49 59.0823 206.201 59.1956 206.86C59.4222 208.173 59.6179 209.306 59.7467 210.238C59.8754 211.17 59.999 211.876 60.0763 212.376C60.1175 212.612 60.1432 212.798 60.169 212.932C60.1947 213.066 60.205 213.122 60.205 213.122C60.2108 213.059 60.2108 212.995 60.205 212.932C60.205 212.793 60.1638 212.607 60.1329 212.37C60.066 211.855 59.9733 211.145 59.8497 210.223C59.7261 209.301 59.551 208.163 59.3347 206.834C59.2265 206.175 59.1132 205.469 58.9948 204.723L58.5673 202.364C57.9802 199.052 57.1562 195.154 56.1932 190.792C55.2301 186.43 54.025 181.712 52.6912 176.753C51.3573 171.794 49.9617 167.117 48.6433 162.848C47.3249 158.579 46.0683 154.804 44.9198 151.642C44.6366 150.849 44.3739 150.097 44.1216 149.376C43.8692 148.655 43.6066 148.001 43.3748 147.372C42.9113 146.121 42.5096 145.039 42.1594 144.169C41.8092 143.299 41.5517 142.624 41.3612 142.155C41.2736 141.934 41.2015 141.764 41.15 141.64C41.1245 141.59 41.0953 141.542 41.0625 141.496Z" fill="#263238"/>
<path d="M75.4707 159.413L75.3625 159.516L75.0638 159.83C74.8012 160.108 74.4252 160.525 73.9514 161.077C72.6088 162.628 71.3766 164.271 70.264 165.995C68.6035 168.55 67.3054 171.323 66.4067 174.235C65.3767 177.515 64.7278 181.249 64.0892 185.153C62.8171 192.965 61.2567 199.959 60.1237 205.021L58.7641 211.011C58.6096 211.706 58.4911 212.257 58.4036 212.643C58.3675 212.819 58.3418 212.958 58.316 213.071C58.3113 213.119 58.3113 213.167 58.316 213.215C58.3374 213.171 58.353 213.124 58.3624 213.076C58.3624 212.968 58.4242 212.829 58.4705 212.654L58.8774 211.032C59.2173 209.605 59.7065 207.571 60.3091 205.058C61.4833 200.005 63.0746 193.012 64.3467 185.194C64.9853 181.29 65.6187 177.567 66.6384 174.297C67.5182 171.39 68.7918 168.618 70.4237 166.057C71.5179 164.331 72.7221 162.678 74.0287 161.107C74.487 160.546 74.8578 160.124 75.105 159.835L75.3883 159.501C75.4449 159.459 75.4758 159.418 75.4707 159.413Z" fill="#263238"/>
<path d="M40.125 191.312C40.1982 191.337 40.2745 191.351 40.3516 191.354L41.0005 191.426L41.4692 191.472L42.0202 191.554C42.4219 191.611 42.8751 191.673 43.3695 191.781L44.1472 191.936L44.9763 192.147C45.5582 192.275 46.1557 192.492 46.7943 192.662C48.1623 193.137 49.4901 193.72 50.7649 194.407C52.0259 195.116 53.2158 195.944 54.3184 196.88C54.7977 197.291 55.2534 197.73 55.6831 198.193C56.0663 198.586 56.4274 199.001 56.7647 199.434C57.0943 199.815 57.326 200.212 57.5629 200.536C57.7627 200.816 57.945 201.109 58.1088 201.412L58.4436 201.968C58.478 202.037 58.5212 202.101 58.5723 202.158C58.5723 202.158 58.5723 202.081 58.4848 201.947C58.3972 201.813 58.3097 201.597 58.1912 201.365C58.0401 201.053 57.8681 200.752 57.6762 200.464C57.4373 200.073 57.1777 199.694 56.8986 199.331C56.5675 198.884 56.2098 198.458 55.8274 198.054C55.3981 197.582 54.9424 197.135 54.4626 196.715C53.3496 195.757 52.1416 194.914 50.8576 194.202C49.572 193.506 48.2299 192.92 46.8458 192.451C46.1969 192.265 45.5943 192.059 45.0072 191.936L44.1626 191.735L43.3747 191.596C42.8597 191.493 42.4219 191.446 42.0202 191.4L41.4589 191.338L40.985 191.312H40.331C40.2627 191.302 40.1933 191.302 40.125 191.312Z" fill="#263238"/>
<path d="M38.3438 159.568C38.4795 159.725 38.6295 159.87 38.7918 160L40.0844 161.118C41.1762 162.055 42.7006 163.337 44.395 164.723C46.0893 166.108 47.6292 167.39 48.7519 168.292L50.0909 169.353C50.2483 169.492 50.4211 169.613 50.6059 169.713C50.469 169.555 50.3172 169.41 50.1527 169.281L48.8652 168.163C47.7682 167.226 46.2438 165.943 44.5546 164.558C42.8654 163.173 41.3204 161.89 40.1977 160.989L38.8587 159.928C38.7013 159.789 38.5286 159.668 38.3438 159.568Z" fill="#263238"/>
<path d="M36.8047 167.854C36.8047 167.916 40.0749 168.946 44.1486 170.146C48.2222 171.346 51.544 172.278 51.5646 172.206C51.5852 172.134 48.2943 171.114 44.2155 169.909C40.1367 168.704 36.8201 167.787 36.8047 167.854Z" fill="#263238"/>
<path d="M48.9531 164.553C49.084 164.408 49.198 164.249 49.293 164.079L50.1582 162.74C50.8947 161.628 51.9401 160.109 53.1761 158.491C54.4121 156.874 55.6018 155.468 56.4773 154.464L57.5073 153.274C57.645 153.137 57.7676 152.985 57.8729 152.821C57.7148 152.936 57.5698 153.067 57.4403 153.213C57.1725 153.47 56.7966 153.862 56.3382 154.351C55.4318 155.329 54.2164 156.725 52.9753 158.347C51.7341 159.969 50.7093 161.509 50.0089 162.647C49.6587 163.219 49.3806 163.677 49.2003 164.012C49.0973 164.182 49.0144 164.364 48.9531 164.553Z" fill="#263238"/>
<path d="M60.375 169.152C60.6052 169.592 60.8633 170.017 61.1475 170.424C61.6625 171.196 62.3062 172.268 62.9963 173.483C63.6864 174.698 64.2684 175.816 64.6804 176.635C64.8834 177.088 65.1175 177.527 65.3808 177.948C65.2415 177.471 65.0587 177.007 64.8349 176.563C64.4589 175.723 63.8976 174.585 63.2075 173.365C62.5174 172.144 61.817 171.078 61.2865 170.326C61.0215 169.906 60.7162 169.513 60.375 169.152Z" fill="#263238"/>
<path d="M64.2812 183.489C64.2812 183.52 64.925 183.216 65.955 182.753C66.985 182.289 68.4167 181.687 70.0338 181.115C71.6509 180.544 73.1547 180.126 74.2465 179.848C75.3383 179.57 76.0181 179.421 76.013 179.385C75.8482 179.376 75.6831 179.394 75.5237 179.436C75.2095 179.483 74.7615 179.565 74.2053 179.684C72.7659 180.001 71.3471 180.405 69.9565 180.894C68.5651 181.378 67.2046 181.947 65.8829 182.598C65.3679 182.851 64.9713 183.067 64.6984 183.222C64.5488 183.293 64.4087 183.383 64.2812 183.489Z" fill="#263238"/>
<path d="M61.2031 200.628C61.2667 200.66 61.3343 200.682 61.404 200.695L61.9962 200.845L64.185 201.36C66.5963 201.869 68.9804 202.5 71.328 203.25C73.6747 204.027 75.9218 205.078 78.023 206.381C78.8213 206.896 79.4393 207.334 79.8564 207.658C80.0679 207.834 80.2898 207.998 80.5208 208.147C80.4787 208.091 80.4303 208.039 80.3766 207.993C80.2684 207.9 80.1242 207.756 79.9182 207.586C79.3433 207.103 78.7415 206.652 78.1157 206.237C76.0295 204.886 73.7798 203.806 71.4207 203.023C69.0583 202.262 66.6502 201.652 64.2107 201.195L62.0065 200.767C61.7424 200.702 61.4739 200.655 61.2031 200.628Z" fill="#263238"/>
<path d="M50.0761 204.852C50.143 204.852 50.5344 202.555 50.9516 199.702C51.3687 196.849 51.6571 194.526 51.5902 194.516C51.5232 194.505 51.1318 196.813 50.7147 199.666C50.2975 202.519 50.0091 204.841 50.0761 204.852Z" fill="#263238"/>
<path d="M38.4961 200.644C38.8673 200.254 39.2114 199.84 39.5261 199.403C40.1544 198.625 41.0196 197.554 42.0032 196.385C42.9869 195.216 43.8933 194.181 44.5782 193.429C44.948 193.038 45.2921 192.623 45.6082 192.188C45.6082 192.188 45.4795 192.275 45.2786 192.471C45.0778 192.667 44.7636 192.95 44.4443 193.31C43.7491 194.037 42.8169 195.061 41.8333 196.23C40.8496 197.4 40.005 198.496 39.4076 199.32C39.1141 199.727 38.8926 200.057 38.7227 200.289C38.6303 200.396 38.5539 200.515 38.4961 200.644Z" fill="#263238"/>
<path d="M69.1506 211.387V217.114H67.7189L62.6307 233.171H51.347L46.4185 217.273L44.5078 217.114V211.387H69.1506Z" fill="#455A64"/>
<path d="M45.4609 217.273C45.4609 217.34 50.4461 217.392 56.5901 217.392C62.734 217.392 67.7192 217.34 67.7192 217.273C67.7192 217.206 62.734 217.155 56.5901 217.155C50.4461 217.155 45.4609 217.206 45.4609 217.273Z" fill="#263238"/>
<path d="M37.3516 180.451C37.5845 180.541 37.8261 180.607 38.0726 180.647L40.0553 181.126C41.7239 181.538 44.0157 182.156 46.5031 183C48.9906 183.845 51.1948 184.725 52.7707 185.405L54.6401 186.219C54.8631 186.334 55.0957 186.428 55.3354 186.502C55.1276 186.363 54.9088 186.241 54.6813 186.137C54.2539 185.915 53.6256 185.622 52.8428 185.251C50.7982 184.316 48.7061 183.489 46.5752 182.774C44.4465 182.058 42.2823 181.453 40.0914 180.961C39.2519 180.775 38.5464 180.636 38.0932 180.559C37.849 180.505 37.6011 180.469 37.3516 180.451Z" fill="#263238"/>
<path d="M49.2109 226.188C49.2109 226.255 52.7078 226.312 57.0183 226.312C61.3289 226.312 64.8257 226.255 64.8257 226.188C64.8257 226.121 61.3289 226.07 57.0183 226.07C52.7078 226.07 49.2109 226.126 49.2109 226.188Z" fill="#FAFAFA"/>
<path d="M48.7734 224.864C48.7734 224.926 52.4763 224.983 57.0443 224.983C61.6124 224.983 65.3204 224.926 65.3204 224.864C65.3204 224.803 61.6124 224.741 57.0443 224.741C52.4763 224.741 48.7734 224.797 48.7734 224.864Z" fill="#FAFAFA"/>
</svg>
